<?xml version="1.0" encoding="UTF-8" standalone="no"?>
<!DOCTYPE svg PUBLIC "-//W3C//DTD SVG 1.1//EN"
 "http://www.w3.org/Graphics/SVG/1.1/DTD/svg11.dtd">
<!-- Generated by graphviz version 2.43.0 (0)
 -->
<!-- Title: %3 Pages: 1 -->
<svg width="2351pt" height="600pt"
 viewBox="0.00 0.00 2351.00 600.00" xmlns="http://www.w3.org/2000/svg" xmlns:xlink="http://www.w3.org/1999/xlink">
<g id="graph0" class="graph" transform="scale(1 1) rotate(0) translate(4 596)">
<title>%3</title>
<polygon fill="white" stroke="transparent" points="-4,4 -4,-596 2347,-596 2347,4 -4,4"/>
<g id="clust2" class="cluster">
<title>sg_0</title>
<g id="a_clust2"><a xlink:title="(player_state == VE_PLAY).measure_duration_true().add_metric(&quot;bufferingTime&quot;)">
<polygon fill="none" stroke="black" points="794.5,-507 794.5,-584 1256,-584 1256,-507 794.5,-507"/>
<text text-anchor="middle" x="1025.25" y="-568.8" font-family="Times,serif" font-size="14.00">app_combined.py:39</text>
</a>
</g>
</g>
<g id="clust3" class="cluster">
<title>sg_1</title>
<g id="a_clust3"><a xlink:title="has_attempted = StateMachine(clock = attempt_event, data = Const(1), transition_fn = &quot;|_, _| 1&quot;) &gt; 0">
<polygon fill="none" stroke="black" points="577,-131 577,-218 989.5,-218 989.5,-131 577,-131"/>
<text text-anchor="middle" x="783.25" y="-202.8" font-family="Times,serif" font-size="14.00">app_combined.py:29</text>
</a>
</g>
</g>
<g id="clust4" class="cluster">
<title>sg_2</title>
<g id="a_clust4"><a xlink:title=" &#160;&#160;&#160;.measure_duration_since_true().add_metric(&quot;connectionInducedBufferingTime&quot;)">
<polygon fill="none" stroke="black" points="1767,-261 1767,-338 2061,-338 2061,-261 1767,-261"/>
<text text-anchor="middle" x="1914" y="-322.8" font-family="Times,serif" font-size="14.00">app_combined.py:48</text>
</a>
</g>
</g>
<g id="clust5" class="cluster">
<title>sg_3</title>
<g id="a_clust5"><a xlink:title="is_buffering = player_state == VE_BUFFER">
<polygon fill="none" stroke="black" points="790,-422 790,-499 994,-499 994,-422 790,-422"/>
<text text-anchor="middle" x="892" y="-483.8" font-family="Times,serif" font-size="14.00">app_combined.py:46</text>
</a>
</g>
</g>
<g id="clust6" class="cluster">
<title>sg_4</title>
<g id="a_clust6"><a xlink:title="attempt_event = SignalFilterBuilder(input.video_event).filter_values(VE_ATEMPT).build_clock_filter()">
<polygon fill="none" stroke="black" points="133.5,-194 133.5,-281 522,-281 522,-194 133.5,-194"/>
<text text-anchor="middle" x="327.75" y="-265.8" font-family="Times,serif" font-size="14.00">app_combined.py:27</text>
</a>
</g>
</g>
<g id="clust7" class="cluster">
<title>sg_5</title>
<g id="a_clust7"><a xlink:title="seeking = (input.raw_event == RE_SEEK_F) | (input.raw_event == RE_SEEK_B)">
<polygon fill="none" stroke="black" points="129,-8 129,-140 557,-140 557,-8 129,-8"/>
<text text-anchor="middle" x="343" y="-124.8" font-family="Times,serif" font-size="14.00">app_combined.py:45</text>
</a>
</g>
</g>
<g id="clust8" class="cluster">
<title>sg_6</title>
<g id="a_clust8"><a xlink:title="(is_buffering &amp; has_been_true(player_state == VE_PLAY) &amp; has_been_true(seeking, duration = &quot;5s&quot;))\">
<polygon fill="none" stroke="black" points="790,-226 790,-368 1747,-368 1747,-226 790,-226"/>
<text text-anchor="middle" x="1268.5" y="-352.8" font-family="Times,serif" font-size="14.00">app_combined.py:47</text>
</a>
</g>
</g>
<g id="clust9" class="cluster">
<title>sg_7</title>
<g id="a_clust9"><a xlink:title="has_attempted.measure_duration_since_true().add_metric(&quot;timeToFirstAttempt&quot;)">
<polygon fill="none" stroke="black" points="1014,-16 1014,-93 1299,-93 1299,-16 1014,-16"/>
<text text-anchor="middle" x="1156.5" y="-77.8" font-family="Times,serif" font-size="14.00">app_combined.py:31</text>
</a>
</g>
</g>
<g id="clust10" class="cluster">
<title>sg_8</title>
<g id="a_clust10"><a xlink:title="player_state = SignalFilterBuilder(input.video_event).filter_values(VE_BUFFER, VE_PLAY).build_value_filter()">
<polygon fill="none" stroke="black" points="133.5,-319 133.5,-451 740.5,-451 740.5,-319 133.5,-319"/>
<text text-anchor="middle" x="437" y="-435.8" font-family="Times,serif" font-size="14.00">app_combined.py:36</text>
</a>
</g>
</g>
<!-- input -->
<g id="node1" class="node">
<title>input</title>
<polygon fill="lightgrey" stroke="black" points="0,-150 0,-242 101,-242 101,-150 0,-150"/>
<text text-anchor="middle" x="50.5" y="-226.8" font-family="Times,serif" font-size="14.00">video_event</text>
<polyline fill="none" stroke="black" points="0,-219 101,-219 "/>
<text text-anchor="middle" x="50.5" y="-203.8" font-family="Times,serif" font-size="14.00">&lt;clk&gt;</text>
<polyline fill="none" stroke="black" points="0,-196 101,-196 "/>
<text text-anchor="middle" x="50.5" y="-180.8" font-family="Times,serif" font-size="14.00">raw_event</text>
<polyline fill="none" stroke="black" points="0,-173 101,-173 "/>
<text text-anchor="middle" x="50.5" y="-157.8" font-family="Times,serif" font-size="14.00">&lt;clk&gt;</text>
</g>
<!-- node_0 -->
<g id="node2" class="node">
<title>node_0</title>
<g id="a_node2"><a xlink:title="SignalMapper::new(|lhs:&amp;String| *lhs == &quot;c3.video.attemp&quot;)">
<polygon fill="none" stroke="black" points="141.5,-213 141.5,-249 320.5,-249 320.5,-213 141.5,-213"/>
<text text-anchor="middle" x="159.5" y="-227.3" font-family="Times,serif" font-size="14.00">[0]</text>
<polyline fill="none" stroke="black" points="177.5,-213 177.5,-249 "/>
<text text-anchor="middle" x="249" y="-227.3" font-family="Times,serif" font-size="14.00">#0:SignalMapper</text>
</a>
</g>
</g>
<!-- input&#45;&gt;node_0 -->
<g id="edge1" class="edge">
<title>input:video_event&#45;&gt;node_0:input0</title>
<path fill="none" stroke="black" d="M101,-231C114.41,-231 120.04,-231 129.92,-231"/>
<polygon fill="black" stroke="black" points="130,-234.5 140,-231 130,-227.5 130,-234.5"/>
</g>
<!-- node_1 -->
<g id="node3" class="node">
<title>node_1</title>
<g id="a_node3"><a xlink:title="Latch::&lt;u64&gt;::default()">
<polygon fill="none" stroke="black" points="396,-203 396,-249 514,-249 514,-203 396,-203"/>
<text text-anchor="middle" x="414" y="-233.8" font-family="Times,serif" font-size="14.00">[0]</text>
<polyline fill="none" stroke="black" points="396,-226 432,-226 "/>
<text text-anchor="middle" x="414" y="-210.8" font-family="Times,serif" font-size="14.00">[1]</text>
<polyline fill="none" stroke="black" points="432,-203 432,-249 "/>
<text text-anchor="middle" x="473" y="-222.3" font-family="Times,serif" font-size="14.00">#1:Latch</text>
</a>
</g>
</g>
<!-- input&#45;&gt;node_1 -->
<g id="edge3" class="edge">
<title>input:video_event_clock&#45;&gt;node_1:input1</title>
<path fill="none" stroke="black" d="M101,-208C113.57,-208 116.46,-204.89 129,-204 215.89,-197.82 238.11,-197.82 325,-204 352.67,-205.97 361.55,-212.25 384.87,-213.7"/>
<polygon fill="black" stroke="black" points="384.9,-217.2 395,-214 385.11,-210.21 384.9,-217.2"/>
</g>
<!-- node_5 -->
<g id="node7" class="node">
<title>node_5</title>
<g id="a_node7"><a xlink:title="SignalMapper::new(|lhs:&amp;String| *lhs == &quot;c3.video.buffering&quot;)">
<polygon fill="none" stroke="black" points="141.5,-383 141.5,-419 320.5,-419 320.5,-383 141.5,-383"/>
<text text-anchor="middle" x="159.5" y="-397.3" font-family="Times,serif" font-size="14.00">[0]</text>
<polyline fill="none" stroke="black" points="177.5,-383 177.5,-419 "/>
<text text-anchor="middle" x="249" y="-397.3" font-family="Times,serif" font-size="14.00">#5:SignalMapper</text>
</a>
</g>
</g>
<!-- input&#45;&gt;node_5 -->
<g id="edge8" class="edge">
<title>input:video_event&#45;&gt;node_5:input0</title>
<path fill="none" stroke="black" d="M101,-231C165.76,-231 84.77,-326.69 129,-374 134.52,-379.91 143.87,-376.9 150.67,-376.17"/>
<polygon fill="black" stroke="black" points="148.8,-379.14 159,-382 152.81,-373.4 148.8,-379.14"/>
</g>
<!-- node_6 -->
<g id="node8" class="node">
<title>node_6</title>
<g id="a_node8"><a xlink:title="SignalMapper::new(|lhs:&amp;String| *lhs == &quot;c3.video.play&quot;)">
<polygon fill="none" stroke="black" points="141.5,-328 141.5,-364 320.5,-364 320.5,-328 141.5,-328"/>
<text text-anchor="middle" x="159.5" y="-342.3" font-family="Times,serif" font-size="14.00">[0]</text>
<polyline fill="none" stroke="black" points="177.5,-328 177.5,-364 "/>
<text text-anchor="middle" x="249" y="-342.3" font-family="Times,serif" font-size="14.00">#6:SignalMapper</text>
</a>
</g>
</g>
<!-- input&#45;&gt;node_6 -->
<g id="edge9" class="edge">
<title>input:video_event&#45;&gt;node_6:input0</title>
<path fill="none" stroke="black" d="M101,-231C139.51,-231 103.27,-284.34 129,-313 135.3,-320.01 145.84,-317.75 152.6,-319.08"/>
<polygon fill="black" stroke="black" points="149.99,-321.42 159,-327 155.44,-317.02 149.99,-321.42"/>
</g>
<!-- node_8 -->
<g id="node10" class="node">
<title>node_8</title>
<g id="a_node10"><a xlink:title="Latch::&lt;String&gt;::default()">
<polygon fill="none" stroke="black" points="614.5,-347 614.5,-393 732.5,-393 732.5,-347 614.5,-347"/>
<text text-anchor="middle" x="632.5" y="-377.8" font-family="Times,serif" font-size="14.00">[0]</text>
<polyline fill="none" stroke="black" points="614.5,-370 650.5,-370 "/>
<text text-anchor="middle" x="632.5" y="-354.8" font-family="Times,serif" font-size="14.00">[1]</text>
<polyline fill="none" stroke="black" points="650.5,-347 650.5,-393 "/>
<text text-anchor="middle" x="691.5" y="-366.3" font-family="Times,serif" font-size="14.00">#8:Latch</text>
</a>
</g>
</g>
<!-- input&#45;&gt;node_8 -->
<g id="edge13" class="edge">
<title>input:video_event&#45;&gt;node_8:input1</title>
<path fill="none" stroke="black" d="M101,-231C128.03,-231 107.01,-269.27 129,-285 139.25,-292.33 534.11,-348.65 603.46,-356.97"/>
<polygon fill="black" stroke="black" points="603.2,-360.47 613.5,-358 603.91,-353.5 603.2,-360.47"/>
</g>
<!-- node_11 -->
<g id="node13" class="node">
<title>node_11</title>
<g id="a_node13"><a xlink:title="SignalMapper::new(|lhs:&amp;String| *lhs == &quot;seek_forward&quot;)">
<polygon fill="none" stroke="black" points="137,-72 137,-108 325,-108 325,-72 137,-72"/>
<text text-anchor="middle" x="155" y="-86.3" font-family="Times,serif" font-size="14.00">[0]</text>
<polyline fill="none" stroke="black" points="173,-72 173,-108 "/>
<text text-anchor="middle" x="249" y="-86.3" font-family="Times,serif" font-size="14.00">#11:SignalMapper</text>
</a>
</g>
</g>
<!-- input&#45;&gt;node_11 -->
<g id="edge16" class="edge">
<title>input:raw_event&#45;&gt;node_11:input0</title>
<path fill="none" stroke="black" d="M101,-184C118.73,-184 146.09,-143.41 153.24,-119.1"/>
<polygon fill="black" stroke="black" points="156.73,-119.45 155,-109 149.84,-118.25 156.73,-119.45"/>
</g>
<!-- node_12 -->
<g id="node14" class="node">
<title>node_12</title>
<g id="a_node14"><a xlink:title="SignalMapper::new(|lhs:&amp;String| *lhs == &quot;seek_backward&quot;)">
<polygon fill="none" stroke="black" points="137,-17 137,-53 325,-53 325,-17 137,-17"/>
<text text-anchor="middle" x="155" y="-31.3" font-family="Times,serif" font-size="14.00">[0]</text>
<polyline fill="none" stroke="black" points="173,-17 173,-53 "/>
<text text-anchor="middle" x="249" y="-31.3" font-family="Times,serif" font-size="14.00">#12:SignalMapper</text>
</a>
</g>
</g>
<!-- input&#45;&gt;node_12 -->
<g id="edge17" class="edge">
<title>input:raw_event&#45;&gt;node_12:input0</title>
<path fill="none" stroke="black" d="M101,-184C156.63,-184 91.12,-102.75 129,-62 133.37,-57.3 140.44,-58.74 146.1,-59.32"/>
<polygon fill="black" stroke="black" points="148.21,-62.14 155,-54 144.62,-56.13 148.21,-62.14"/>
</g>
<!-- node_0&#45;&gt;node_1 -->
<g id="edge2" class="edge">
<title>node_0:output&#45;&gt;node_1:input0</title>
<path fill="none" stroke="black" d="M322,-231C350.9,-231 360.32,-236.5 384.81,-237.75"/>
<polygon fill="black" stroke="black" points="384.92,-241.25 395,-238 385.09,-234.26 384.92,-241.25"/>
</g>
<!-- node_2 -->
<g id="node4" class="node">
<title>node_2</title>
<g id="a_node4"><a xlink:title="StateMachine::new(0, |_, _| 1)">
<polygon fill="none" stroke="black" points="585,-140 585,-186 762,-186 762,-140 585,-140"/>
<text text-anchor="middle" x="603" y="-170.8" font-family="Times,serif" font-size="14.00">[0]</text>
<polyline fill="none" stroke="black" points="585,-163 621,-163 "/>
<text text-anchor="middle" x="603" y="-147.8" font-family="Times,serif" font-size="14.00">[1]</text>
<polyline fill="none" stroke="black" points="621,-140 621,-186 "/>
<text text-anchor="middle" x="691.5" y="-159.3" font-family="Times,serif" font-size="14.00">#2:StateMachine</text>
</a>
</g>
</g>
<!-- node_1&#45;&gt;node_2 -->
<g id="edge4" class="edge">
<title>node_1:output&#45;&gt;node_2:input0</title>
<path fill="none" stroke="black" d="M515,-226C522.71,-226 556.85,-192.33 574.47,-179.71"/>
<polygon fill="black" stroke="black" points="576.25,-182.73 583.5,-175 573.01,-176.52 576.25,-182.73"/>
</g>
<!-- node_3 -->
<g id="node5" class="node">
<title>node_3</title>
<g id="a_node5"><a xlink:title="SignalMapper::new(|lhs:&amp;_| *lhs &gt; 0i32)">
<polygon fill="none" stroke="black" points="802.5,-142 802.5,-178 981.5,-178 981.5,-142 802.5,-142"/>
<text text-anchor="middle" x="820.5" y="-156.3" font-family="Times,serif" font-size="14.00">[0]</text>
<polyline fill="none" stroke="black" points="838.5,-142 838.5,-178 "/>
<text text-anchor="middle" x="910" y="-156.3" font-family="Times,serif" font-size="14.00">#3:SignalMapper</text>
</a>
</g>
</g>
<!-- node_2&#45;&gt;node_3 -->
<g id="edge6" class="edge">
<title>node_2:output&#45;&gt;node_3:input0</title>
<path fill="none" stroke="black" d="M762,-163C775.45,-163 781.02,-161.21 790.9,-160.39"/>
<polygon fill="black" stroke="black" points="791.14,-163.89 801,-160 790.87,-156.89 791.14,-163.89"/>
</g>
<!-- node_4 -->
<g id="node6" class="node">
<title>node_4</title>
<g id="a_node6"><a xlink:title="DurationSinceBecomeTrue::default()">
<polygon fill="none" stroke="black" points="1022,-25 1022,-61 1291,-61 1291,-25 1022,-25"/>
<text text-anchor="middle" x="1040" y="-39.3" font-family="Times,serif" font-size="14.00">[0]</text>
<polyline fill="none" stroke="black" points="1058,-25 1058,-61 "/>
<text text-anchor="middle" x="1174.5" y="-39.3" font-family="Times,serif" font-size="14.00">#4:DurationSinceBecomeTrue</text>
</a>
</g>
</g>
<!-- node_3&#45;&gt;node_4 -->
<g id="edge7" class="edge">
<title>node_3:output&#45;&gt;node_4:input0</title>
<path fill="none" stroke="black" d="M983,-160C1033.55,-160 975.84,-59.72 1010.33,-44.84"/>
<polygon fill="black" stroke="black" points="1011.28,-48.22 1020.5,-43 1010.04,-41.33 1011.28,-48.22"/>
</g>
<!-- output_timeToFirstAttempt -->
<g id="node23" class="node">
<title>output_timeToFirstAttempt</title>
<polygon fill="gray" stroke="black" points="1500,-61 1342,-61 1342,-25 1500,-25 1500,-61"/>
<text text-anchor="middle" x="1421" y="-39.3" font-family="Times,serif" font-size="14.00">timeToFirstAttempt</text>
</g>
<!-- node_4&#45;&gt;output_timeToFirstAttempt -->
<g id="edge31" class="edge">
<title>node_4:output&#45;&gt;output_timeToFirstAttempt</title>
<path fill="none" stroke="black" d="M1292.5,-43C1305.2,-43 1318.61,-43 1331.78,-43"/>
<polygon fill="black" stroke="black" points="1331.78,-46.5 1341.78,-43 1331.78,-39.5 1331.78,-46.5"/>
</g>
<!-- node_7 -->
<g id="node9" class="node">
<title>node_7</title>
<g id="a_node9"><a xlink:title="SignalMapper::new(|(lhs, rhs):&amp;(_,_)| *lhs &amp;&amp; *rhs)">
<polygon fill="none" stroke="black" points="365.5,-364 365.5,-400 544.5,-400 544.5,-364 365.5,-364"/>
<text text-anchor="middle" x="383.5" y="-378.3" font-family="Times,serif" font-size="14.00">[0]</text>
<polyline fill="none" stroke="black" points="401.5,-364 401.5,-400 "/>
<text text-anchor="middle" x="473" y="-378.3" font-family="Times,serif" font-size="14.00">#7:SignalMapper</text>
</a>
</g>
</g>
<!-- node_5&#45;&gt;node_7 -->
<g id="edge10" class="edge">
<title>node_5:output&#45;&gt;node_7:input0</title>
<path fill="none" stroke="black" d="M322,-401C338.49,-401 342.37,-388.7 353.93,-383.89"/>
<polygon fill="black" stroke="black" points="354.82,-387.29 364,-382 353.53,-380.41 354.82,-387.29"/>
</g>
<!-- node_6&#45;&gt;node_7 -->
<g id="edge11" class="edge">
<title>node_6:output&#45;&gt;node_7:input0</title>
<path fill="none" stroke="black" d="M322,-346C342.55,-346 340.91,-371.16 354.18,-379.41"/>
<polygon fill="black" stroke="black" points="353.44,-382.83 364,-382 355.22,-376.07 353.44,-382.83"/>
</g>
<!-- node_7&#45;&gt;node_8 -->
<g id="edge12" class="edge">
<title>node_7:output&#45;&gt;node_8:input0</title>
<path fill="none" stroke="black" d="M546,-382C572.25,-382 581.27,-382 603.22,-382"/>
<polygon fill="black" stroke="black" points="603.5,-385.5 613.5,-382 603.5,-378.5 603.5,-385.5"/>
</g>
<!-- node_9 -->
<g id="node11" class="node">
<title>node_9</title>
<g id="a_node11"><a xlink:title="SignalMapper::new(|lhs:&amp;_| *lhs == &quot;c3.video.play&quot;)">
<polygon fill="none" stroke="black" points="802.5,-516 802.5,-552 981.5,-552 981.5,-516 802.5,-516"/>
<text text-anchor="middle" x="820.5" y="-530.3" font-family="Times,serif" font-size="14.00">[0]</text>
<polyline fill="none" stroke="black" points="838.5,-516 838.5,-552 "/>
<text text-anchor="middle" x="910" y="-530.3" font-family="Times,serif" font-size="14.00">#9:SignalMapper</text>
</a>
</g>
</g>
<!-- node_8&#45;&gt;node_9 -->
<g id="edge14" class="edge">
<title>node_8:output&#45;&gt;node_9:input0</title>
<path fill="none" stroke="black" d="M733.5,-370C797.72,-370 744.11,-458.07 790,-503 796.41,-509.28 806.53,-506.79 813.21,-507.54"/>
<polygon fill="black" stroke="black" points="810.68,-509.96 820,-515 815.86,-505.25 810.68,-509.96"/>
</g>
<!-- node_14 -->
<g id="node16" class="node">
<title>node_14</title>
<g id="a_node16"><a xlink:title="SignalMapper::new(|lhs:&amp;_| *lhs == &quot;c3.video.buffering&quot;)">
<polygon fill="none" stroke="black" points="798,-431 798,-467 986,-467 986,-431 798,-431"/>
<text text-anchor="middle" x="816" y="-445.3" font-family="Times,serif" font-size="14.00">[0]</text>
<polyline fill="none" stroke="black" points="834,-431 834,-467 "/>
<text text-anchor="middle" x="910" y="-445.3" font-family="Times,serif" font-size="14.00">#14:SignalMapper</text>
</a>
</g>
</g>
<!-- node_8&#45;&gt;node_14 -->
<g id="edge20" class="edge">
<title>node_8:output&#45;&gt;node_14:input0</title>
<path fill="none" stroke="black" d="M733.5,-370C774.68,-370 755.99,-436.01 786.88,-447.35"/>
<polygon fill="black" stroke="black" points="786.57,-450.84 797,-449 787.69,-443.94 786.57,-450.84"/>
</g>
<!-- node_15 -->
<g id="node17" class="node">
<title>node_15</title>
<g id="a_node17"><a xlink:title="SignalMapper::new(|lhs:&amp;_| *lhs == &quot;c3.video.play&quot;)">
<polygon fill="none" stroke="black" points="798,-300 798,-336 986,-336 986,-300 798,-300"/>
<text text-anchor="middle" x="816" y="-314.3" font-family="Times,serif" font-size="14.00">[0]</text>
<polyline fill="none" stroke="black" points="834,-300 834,-336 "/>
<text text-anchor="middle" x="910" y="-314.3" font-family="Times,serif" font-size="14.00">#15:SignalMapper</text>
</a>
</g>
</g>
<!-- node_8&#45;&gt;node_15 -->
<g id="edge21" class="edge">
<title>node_8:output&#45;&gt;node_15:input0</title>
<path fill="none" stroke="black" d="M733.5,-370C766.13,-370 762.01,-328.39 786.88,-319.61"/>
<polygon fill="black" stroke="black" points="787.68,-323.03 797,-318 786.57,-316.12 787.68,-323.03"/>
</g>
<!-- node_10 -->
<g id="node12" class="node">
<title>node_10</title>
<g id="a_node12"><a xlink:title="DurationTrue::default()">
<polygon fill="none" stroke="black" points="1065,-516 1065,-552 1248,-552 1248,-516 1065,-516"/>
<text text-anchor="middle" x="1083" y="-530.3" font-family="Times,serif" font-size="14.00">[0]</text>
<polyline fill="none" stroke="black" points="1101,-516 1101,-552 "/>
<text text-anchor="middle" x="1174.5" y="-530.3" font-family="Times,serif" font-size="14.00">#10:DurationTrue</text>
</a>
</g>
</g>
<!-- node_9&#45;&gt;node_10 -->
<g id="edge15" class="edge">
<title>node_9:output&#45;&gt;node_10:input0</title>
<path fill="none" stroke="black" d="M983,-534C1015.14,-534 1025.63,-534 1053.37,-534"/>
<polygon fill="black" stroke="black" points="1053.5,-537.5 1063.5,-534 1053.5,-530.5 1053.5,-537.5"/>
</g>
<!-- output_bufferingTime -->
<g id="node25" class="node">
<title>output_bufferingTime</title>
<polygon fill="gray" stroke="black" points="1480,-552 1362,-552 1362,-516 1480,-516 1480,-552"/>
<text text-anchor="middle" x="1421" y="-530.3" font-family="Times,serif" font-size="14.00">bufferingTime</text>
</g>
<!-- node_10&#45;&gt;output_bufferingTime -->
<g id="edge33" class="edge">
<title>node_10:output&#45;&gt;output_bufferingTime</title>
<path fill="none" stroke="black" d="M1249.5,-534C1283.14,-534 1320.52,-534 1351.68,-534"/>
<polygon fill="black" stroke="black" points="1352,-537.5 1362,-534 1352,-530.5 1352,-537.5"/>
</g>
<!-- node_13 -->
<g id="node15" class="node">
<title>node_13</title>
<g id="a_node15"><a xlink:title="SignalMapper::new(|(lhs, rhs):&amp;(_,_)| *lhs &amp;&amp; *rhs)">
<polygon fill="none" stroke="black" points="361,-72 361,-108 549,-108 549,-72 361,-72"/>
<text text-anchor="middle" x="379" y="-86.3" font-family="Times,serif" font-size="14.00">[0]</text>
<polyline fill="none" stroke="black" points="397,-72 397,-108 "/>
<text text-anchor="middle" x="473" y="-86.3" font-family="Times,serif" font-size="14.00">#13:SignalMapper</text>
</a>
</g>
</g>
<!-- node_11&#45;&gt;node_13 -->
<g id="edge18" class="edge">
<title>node_11:output&#45;&gt;node_13:input0</title>
<path fill="none" stroke="black" d="M325,-90C337,-90 342.25,-90 350.88,-90"/>
<polygon fill="black" stroke="black" points="351,-93.5 361,-90 351,-86.5 351,-93.5"/>
</g>
<!-- node_12&#45;&gt;node_13 -->
<g id="edge19" class="edge">
<title>node_12:output&#45;&gt;node_13:input0</title>
<path fill="none" stroke="black" d="M325,-35C349.88,-35 337.31,-74.88 351.07,-86.72"/>
<polygon fill="black" stroke="black" points="350.41,-90.19 361,-90 352.6,-83.54 350.41,-90.19"/>
</g>
<!-- node_18 -->
<g id="node20" class="node">
<title>node_18</title>
<g id="a_node20"><a xlink:title="Latch::with_forget_behavior(&lt;bool as Default&gt;::default(), &lt;bool as Default&gt;::default(), 5000000000)">
<polygon fill="none" stroke="black" points="1357.5,-235 1357.5,-281 1484.5,-281 1484.5,-235 1357.5,-235"/>
<text text-anchor="middle" x="1375.5" y="-265.8" font-family="Times,serif" font-size="14.00">[0]</text>
<polyline fill="none" stroke="black" points="1357.5,-258 1393.5,-258 "/>
<text text-anchor="middle" x="1375.5" y="-242.8" font-family="Times,serif" font-size="14.00">[1]</text>
<polyline fill="none" stroke="black" points="1393.5,-235 1393.5,-281 "/>
<text text-anchor="middle" x="1439" y="-254.3" font-family="Times,serif" font-size="14.00">#18:Latch</text>
</a>
</g>
</g>
<!-- node_13&#45;&gt;node_18 -->
<g id="edge26" class="edge">
<title>node_13:output&#45;&gt;node_18:input0</title>
<path fill="none" stroke="black" d="M550,-90C748.02,-90 801.18,-81.92 994,-127 1158.99,-165.58 1182.11,-265.78 1345.55,-269.87"/>
<polygon fill="black" stroke="black" points="1345.96,-273.38 1356,-270 1346.04,-266.38 1345.96,-273.38"/>
</g>
<!-- node_17 -->
<g id="node19" class="node">
<title>node_17</title>
<g id="a_node19"><a xlink:title="SignalMapper::new(|(lhs, rhs):&amp;(_,_)| *lhs &amp;&amp; *rhs)">
<polygon fill="none" stroke="black" points="1327,-300 1327,-336 1515,-336 1515,-300 1327,-300"/>
<text text-anchor="middle" x="1345" y="-314.3" font-family="Times,serif" font-size="14.00">[0]</text>
<polyline fill="none" stroke="black" points="1363,-300 1363,-336 "/>
<text text-anchor="middle" x="1439" y="-314.3" font-family="Times,serif" font-size="14.00">#17:SignalMapper</text>
</a>
</g>
</g>
<!-- node_14&#45;&gt;node_17 -->
<g id="edge24" class="edge">
<title>node_14:output&#45;&gt;node_17:input0</title>
<path fill="none" stroke="black" d="M987,-449C1127.88,-449 1190.84,-483.28 1299,-393 1323.11,-372.87 1298.74,-329.83 1317.18,-320.02"/>
<polygon fill="black" stroke="black" points="1317.91,-323.44 1327,-318 1316.5,-316.59 1317.91,-323.44"/>
</g>
<!-- node_16 -->
<g id="node18" class="node">
<title>node_16</title>
<g id="a_node18"><a xlink:title="Latch::&lt;bool&gt;::default()">
<polygon fill="none" stroke="black" points="1093,-290 1093,-336 1220,-336 1220,-290 1093,-290"/>
<text text-anchor="middle" x="1111" y="-320.8" font-family="Times,serif" font-size="14.00">[0]</text>
<polyline fill="none" stroke="black" points="1093,-313 1129,-313 "/>
<text text-anchor="middle" x="1111" y="-297.8" font-family="Times,serif" font-size="14.00">[1]</text>
<polyline fill="none" stroke="black" points="1129,-290 1129,-336 "/>
<text text-anchor="middle" x="1174.5" y="-309.3" font-family="Times,serif" font-size="14.00">#16:Latch</text>
</a>
</g>
</g>
<!-- node_15&#45;&gt;node_16 -->
<g id="edge22" class="edge">
<title>node_15:output&#45;&gt;node_16:input0</title>
<path fill="none" stroke="black" d="M987,-318C1029.91,-318 1042.96,-323.95 1081.2,-324.88"/>
<polygon fill="black" stroke="black" points="1081.46,-328.38 1091.5,-325 1081.54,-321.38 1081.46,-328.38"/>
</g>
<!-- node_16&#45;&gt;node_17 -->
<g id="edge25" class="edge">
<title>node_16:output&#45;&gt;node_17:input0</title>
<path fill="none" stroke="black" d="M1221.5,-313C1264.77,-313 1278.03,-317.25 1316.61,-317.91"/>
<polygon fill="black" stroke="black" points="1316.97,-321.42 1327,-318 1317.03,-314.42 1316.97,-321.42"/>
</g>
<!-- node_19 -->
<g id="node21" class="node">
<title>node_19</title>
<g id="a_node21"><a xlink:title="SignalMapper::new(|(lhs, rhs):&amp;(_,_)| *lhs &amp;&amp; *rhs)">
<polygon fill="none" stroke="black" points="1551,-270 1551,-306 1739,-306 1739,-270 1551,-270"/>
<text text-anchor="middle" x="1569" y="-284.3" font-family="Times,serif" font-size="14.00">[0]</text>
<polyline fill="none" stroke="black" points="1587,-270 1587,-306 "/>
<text text-anchor="middle" x="1663" y="-284.3" font-family="Times,serif" font-size="14.00">#19:SignalMapper</text>
</a>
</g>
</g>
<!-- node_17&#45;&gt;node_19 -->
<g id="edge28" class="edge">
<title>node_17:output&#45;&gt;node_19:input0</title>
<path fill="none" stroke="black" d="M1515,-318C1531.76,-318 1531.37,-298.57 1541.43,-290.99"/>
<polygon fill="black" stroke="black" points="1542.5,-294.32 1551,-288 1540.41,-287.64 1542.5,-294.32"/>
</g>
<!-- node_18&#45;&gt;node_19 -->
<g id="edge29" class="edge">
<title>node_18:output&#45;&gt;node_19:input0</title>
<path fill="none" stroke="black" d="M1486,-258C1514.09,-258 1518.44,-281.38 1540.97,-286.86"/>
<polygon fill="black" stroke="black" points="1540.67,-290.35 1551,-288 1541.46,-283.39 1540.67,-290.35"/>
</g>
<!-- node_20 -->
<g id="node22" class="node">
<title>node_20</title>
<g id="a_node22"><a xlink:title="DurationSinceBecomeTrue::default()">
<polygon fill="none" stroke="black" points="1775,-270 1775,-306 2053,-306 2053,-270 1775,-270"/>
<text text-anchor="middle" x="1793" y="-284.3" font-family="Times,serif" font-size="14.00">[0]</text>
<polyline fill="none" stroke="black" points="1811,-270 1811,-306 "/>
<text text-anchor="middle" x="1932" y="-284.3" font-family="Times,serif" font-size="14.00">#20:DurationSinceBecomeTrue</text>
</a>
</g>
</g>
<!-- node_19&#45;&gt;node_20 -->
<g id="edge30" class="edge">
<title>node_19:output&#45;&gt;node_20:input0</title>
<path fill="none" stroke="black" d="M1740,-288C1751.1,-288 1756.08,-288 1763.93,-288"/>
<polygon fill="black" stroke="black" points="1764,-291.5 1774,-288 1764,-284.5 1764,-291.5"/>
</g>
<!-- output_connectionInducedBufferingTime -->
<g id="node24" class="node">
<title>output_connectionInducedBufferingTime</title>
<polygon fill="gray" stroke="black" points="2343,-306 2089,-306 2089,-270 2343,-270 2343,-306"/>
<text text-anchor="middle" x="2216" y="-284.3" font-family="Times,serif" font-size="14.00">connectionInducedBufferingTime</text>
</g>
<!-- node_20&#45;&gt;output_connectionInducedBufferingTime -->
<g id="edge32" class="edge">
<title>node_20:output&#45;&gt;output_connectionInducedBufferingTime</title>
<path fill="none" stroke="black" d="M2054,-288C2062.05,-288 2070.32,-288 2078.67,-288"/>
<polygon fill="black" stroke="black" points="2078.88,-291.5 2088.88,-288 2078.88,-284.5 2078.88,-291.5"/>
</g>
<!-- Const_1i32 -->
<g id="node26" class="node">
<title>Const_1i32</title>
<ellipse fill="none" stroke="black" cx="455" cy="-166" rx="62.29" ry="18"/>
<text text-anchor="middle" x="455" y="-162.3" font-family="Times,serif" font-size="14.00">Const_1i32</text>
</g>
<!-- Const_1i32&#45;&gt;node_2 -->
<g id="edge5" class="edge">
<title>Const_1i32&#45;&gt;node_2:input1</title>
<path fill="none" stroke="black" d="M509.19,-156.93C528.88,-154.2 551.68,-151.76 573.32,-151.15"/>
<polygon fill="black" stroke="black" points="573.55,-154.65 583.5,-151 573.45,-147.65 573.55,-154.65"/>
</g>
<!-- Const_true -->
<g id="node27" class="node">
<title>Const_true</title>
<ellipse fill="none" stroke="black" cx="892" cy="-394" rx="61.99" ry="18"/>
<text text-anchor="middle" x="892" y="-390.3" font-family="Times,serif" font-size="14.00">Const_true</text>
</g>
<!-- Const_true&#45;&gt;node_16 -->
<g id="edge23" class="edge">
<title>Const_true&#45;&gt;node_16:input1</title>
<path fill="none" stroke="black" d="M948.05,-386.31C963.34,-383.04 979.67,-378.43 994,-372 1039.56,-351.55 1038.33,-307.58 1081.29,-301.66"/>
<polygon fill="black" stroke="black" points="1081.75,-305.14 1091.5,-301 1081.29,-298.16 1081.75,-305.14"/>
</g>
<!-- Const_true&#45;&gt;node_18 -->
<g id="edge27" class="edge">
<title>Const_true&#45;&gt;node_18:input1</title>
<path fill="none" stroke="black" d="M954.12,-393.68C1053.53,-392.05 1244.63,-383.9 1299,-346 1337.85,-318.92 1309.77,-256.27 1345.98,-247.12"/>
<polygon fill="black" stroke="black" points="1346.45,-250.59 1356,-246 1345.67,-243.64 1346.45,-250.59"/>
</g>
</g>
</svg>
