<?xml version="1.0" encoding="UTF-8" standalone="no"?>
<!DOCTYPE svg PUBLIC "-//W3C//DTD SVG 1.1//EN"
 "http://www.w3.org/Graphics/SVG/1.1/DTD/svg11.dtd">
<!-- Generated by graphviz version 2.43.0 (0)
 -->
<!-- Title: %3 Pages: 1 -->
<svg width="1773pt" height="308pt"
 viewBox="0.00 0.00 1773.00 308.40" xmlns="http://www.w3.org/2000/svg" xmlns:xlink="http://www.w3.org/1999/xlink">
<g id="graph0" class="graph" transform="scale(1 1) rotate(0) translate(4 304.4)">
<title>%3</title>
<polygon fill="white" stroke="transparent" points="-4,4 -4,-304.4 1769,-304.4 1769,4 -4,4"/>
<g id="clust2" class="cluster">
<title>sg_0</title>
<g id="a_clust2"><a xlink:title=" &#160;&#160;&#160;&#160;&#160;&#160;&#160;(input.cdn == &quot;cdn1&quot;)">
<polygon fill="none" stroke="black" points="992,-22.4 992,-99.4 1187,-99.4 1187,-22.4 992,-22.4"/>
<text text-anchor="middle" x="1089.5" y="-84.2" font-family="Times,serif" font-size="14.00">cidr.py:17</text>
</a>
</g>
</g>
<g id="clust3" class="cluster">
<title>sg_1</title>
<g id="a_clust3"><a xlink:title="target.measure_duration_true().add_metric(&quot;totalPlayTime&quot;)">
<polygon fill="none" stroke="black" points="1422,-160.4 1422,-237.4 1621,-237.4 1621,-160.4 1422,-160.4"/>
<text text-anchor="middle" x="1521.5" y="-222.2" font-family="Times,serif" font-size="14.00">cidr.py:18</text>
</a>
</g>
</g>
<g id="clust4" class="cluster">
<title>sg_2</title>
<g id="a_clust4"><a xlink:title=" &#160;&#160;&#160;&#160;&#160;~has_been_true(input.user_action == &quot;seek&quot;, 5_000_000_000) &amp;\">
<polygon fill="none" stroke="black" points="132,-36.4 132,-123.4 757,-123.4 757,-36.4 132,-36.4"/>
<text text-anchor="middle" x="444.5" y="-108.2" font-family="Times,serif" font-size="14.00">cidr.py:15</text>
</a>
</g>
</g>
<g id="clust5" class="cluster">
<title>sg_3</title>
<g id="a_clust5"><a xlink:title="target = has_been_true(input.user_action == &quot;play&quot;) &amp;\">
<polygon fill="none" stroke="black" points="347,-158.4 347,-245.4 1402,-245.4 1402,-158.4 347,-158.4"/>
<text text-anchor="middle" x="874.5" y="-230.2" font-family="Times,serif" font-size="14.00">cidr.py:14</text>
</a>
</g>
</g>
<g id="clust6" class="cluster">
<title>sg_4</title>
<g id="a_clust6"><a xlink:title=" &#160;&#160;&#160;&#160;&#160;&#160;&#160;(input.player_state == &quot;buffer&quot;) &amp;\">
<polygon fill="none" stroke="black" points="132,-215.4 132,-292.4 327,-292.4 327,-215.4 132,-215.4"/>
<text text-anchor="middle" x="229.5" y="-277.2" font-family="Times,serif" font-size="14.00">cidr.py:16</text>
</a>
</g>
</g>
<!-- input -->
<g id="node1" class="node">
<title>input</title>
<polygon fill="lightgrey" stroke="black" points="0,-31.4 0,-215.4 104,-215.4 104,-31.4 0,-31.4"/>
<text text-anchor="middle" x="52" y="-200.2" font-family="Times,serif" font-size="14.00">player_state</text>
<polyline fill="none" stroke="black" points="0,-192.4 104,-192.4 "/>
<text text-anchor="middle" x="52" y="-177.2" font-family="Times,serif" font-size="14.00">&lt;clk&gt;</text>
<polyline fill="none" stroke="black" points="0,-169.4 104,-169.4 "/>
<text text-anchor="middle" x="52" y="-154.2" font-family="Times,serif" font-size="14.00">network</text>
<polyline fill="none" stroke="black" points="0,-146.4 104,-146.4 "/>
<text text-anchor="middle" x="52" y="-131.2" font-family="Times,serif" font-size="14.00">&lt;clk&gt;</text>
<polyline fill="none" stroke="black" points="0,-123.4 104,-123.4 "/>
<text text-anchor="middle" x="52" y="-108.2" font-family="Times,serif" font-size="14.00">user_action</text>
<polyline fill="none" stroke="black" points="0,-100.4 104,-100.4 "/>
<text text-anchor="middle" x="52" y="-85.2" font-family="Times,serif" font-size="14.00">&lt;clk&gt;</text>
<polyline fill="none" stroke="black" points="0,-77.4 104,-77.4 "/>
<text text-anchor="middle" x="52" y="-62.2" font-family="Times,serif" font-size="14.00">cdn</text>
<polyline fill="none" stroke="black" points="0,-54.4 104,-54.4 "/>
<text text-anchor="middle" x="52" y="-39.2" font-family="Times,serif" font-size="14.00">&lt;clk&gt;</text>
</g>
<!-- node_0 -->
<g id="node2" class="node">
<title>node_0</title>
<g id="a_node2"><a xlink:title="SignalMapper::new(|lhs:&amp;String| *lhs == &quot;play&quot;)">
<polygon fill="none" stroke="black" points="355,-177.4 355,-213.4 534,-213.4 534,-177.4 355,-177.4"/>
<text text-anchor="middle" x="373" y="-191.7" font-family="Times,serif" font-size="14.00">[0]</text>
<polyline fill="none" stroke="black" points="391,-177.4 391,-213.4 "/>
<text text-anchor="middle" x="462.5" y="-191.7" font-family="Times,serif" font-size="14.00">#0:SignalMapper</text>
</a>
</g>
</g>
<!-- input&#45;&gt;node_0 -->
<g id="edge1" class="edge">
<title>input:user_action&#45;&gt;node_0:input0</title>
<path fill="none" stroke="black" d="M104,-111.4C135.46,-111.4 106.49,-158 132,-176.4 209.32,-232.17 251.66,-198.01 343.28,-195.54"/>
<polygon fill="black" stroke="black" points="343.55,-199.04 353.5,-195.4 343.45,-192.04 343.55,-199.04"/>
</g>
<!-- node_2 -->
<g id="node4" class="node">
<title>node_2</title>
<g id="a_node4"><a xlink:title="SignalMapper::new(|lhs:&amp;String| *lhs == &quot;seek&quot;)">
<polygon fill="none" stroke="black" points="140,-55.4 140,-91.4 319,-91.4 319,-55.4 140,-55.4"/>
<text text-anchor="middle" x="158" y="-69.7" font-family="Times,serif" font-size="14.00">[0]</text>
<polyline fill="none" stroke="black" points="176,-55.4 176,-91.4 "/>
<text text-anchor="middle" x="247.5" y="-69.7" font-family="Times,serif" font-size="14.00">#2:SignalMapper</text>
</a>
</g>
</g>
<!-- input&#45;&gt;node_2 -->
<g id="edge4" class="edge">
<title>input:user_action&#45;&gt;node_2:input0</title>
<path fill="none" stroke="black" d="M104,-111.4C122.53,-111.4 118.67,-86.32 128.8,-76.91"/>
<polygon fill="black" stroke="black" points="130.29,-80.1 138.5,-73.4 127.91,-73.51 130.29,-80.1"/>
</g>
<!-- node_6 -->
<g id="node8" class="node">
<title>node_6</title>
<g id="a_node8"><a xlink:title="SignalMapper::new(|lhs:&amp;String| *lhs == &quot;buffer&quot;)">
<polygon fill="none" stroke="black" points="140,-224.4 140,-260.4 319,-260.4 319,-224.4 140,-224.4"/>
<text text-anchor="middle" x="158" y="-238.7" font-family="Times,serif" font-size="14.00">[0]</text>
<polyline fill="none" stroke="black" points="176,-224.4 176,-260.4 "/>
<text text-anchor="middle" x="247.5" y="-238.7" font-family="Times,serif" font-size="14.00">#6:SignalMapper</text>
</a>
</g>
</g>
<!-- input&#45;&gt;node_6 -->
<g id="edge10" class="edge">
<title>input:player_state&#45;&gt;node_6:input0</title>
<path fill="none" stroke="black" d="M104,-204.4C108.63,-204.4 135.31,-211.25 149.16,-217.38"/>
<polygon fill="black" stroke="black" points="147.34,-220.39 157.5,-223.4 151.44,-214.71 147.34,-220.39"/>
</g>
<!-- node_8 -->
<g id="node10" class="node">
<title>node_8</title>
<g id="a_node10"><a xlink:title="SignalMapper::new(|lhs:&amp;String| *lhs == &quot;cdn1&quot;)">
<polygon fill="none" stroke="black" points="1000,-31.4 1000,-67.4 1179,-67.4 1179,-31.4 1000,-31.4"/>
<text text-anchor="middle" x="1018" y="-45.7" font-family="Times,serif" font-size="14.00">[0]</text>
<polyline fill="none" stroke="black" points="1036,-31.4 1036,-67.4 "/>
<text text-anchor="middle" x="1107.5" y="-45.7" font-family="Times,serif" font-size="14.00">#8:SignalMapper</text>
</a>
</g>
</g>
<!-- input&#45;&gt;node_8 -->
<g id="edge13" class="edge">
<title>input:cdn&#45;&gt;node_8:input0</title>
<path fill="none" stroke="black" d="M104,-65.4C123.23,-65.4 114.76,-40.93 132,-32.4 256.26,29.05 304.87,-16.4 443.5,-16.4 443.5,-16.4 443.5,-16.4 660.5,-16.4 807.9,-16.4 845.81,-47.88 988.07,-49.35"/>
<polygon fill="black" stroke="black" points="988.48,-52.85 998.5,-49.4 988.52,-45.85 988.48,-52.85"/>
</g>
<!-- node_1 -->
<g id="node3" class="node">
<title>node_1</title>
<g id="a_node3"><a xlink:title="Latch::&lt;bool&gt;::default()">
<polygon fill="none" stroke="black" points="600.5,-167.4 600.5,-213.4 718.5,-213.4 718.5,-167.4 600.5,-167.4"/>
<text text-anchor="middle" x="618.5" y="-198.2" font-family="Times,serif" font-size="14.00">[0]</text>
<polyline fill="none" stroke="black" points="600.5,-190.4 636.5,-190.4 "/>
<text text-anchor="middle" x="618.5" y="-175.2" font-family="Times,serif" font-size="14.00">[1]</text>
<polyline fill="none" stroke="black" points="636.5,-167.4 636.5,-213.4 "/>
<text text-anchor="middle" x="677.5" y="-186.7" font-family="Times,serif" font-size="14.00">#1:Latch</text>
</a>
</g>
</g>
<!-- node_0&#45;&gt;node_1 -->
<g id="edge2" class="edge">
<title>node_0:output&#45;&gt;node_1:input0</title>
<path fill="none" stroke="black" d="M534,-195.4C559.62,-195.4 568.14,-200.76 589.48,-202.1"/>
<polygon fill="black" stroke="black" points="589.4,-205.6 599.5,-202.4 589.61,-198.61 589.4,-205.6"/>
</g>
<!-- node_5 -->
<g id="node7" class="node">
<title>node_5</title>
<g id="a_node7"><a xlink:title="SignalMapper::new(|(lhs, rhs):&amp;(_,_)| *lhs &amp;&amp; *rhs)">
<polygon fill="none" stroke="black" points="785,-170.4 785,-206.4 964,-206.4 964,-170.4 785,-170.4"/>
<text text-anchor="middle" x="803" y="-184.7" font-family="Times,serif" font-size="14.00">[0]</text>
<polyline fill="none" stroke="black" points="821,-170.4 821,-206.4 "/>
<text text-anchor="middle" x="892.5" y="-184.7" font-family="Times,serif" font-size="14.00">#5:SignalMapper</text>
</a>
</g>
</g>
<!-- node_1&#45;&gt;node_5 -->
<g id="edge8" class="edge">
<title>node_1:output&#45;&gt;node_5:input0</title>
<path fill="none" stroke="black" d="M719.5,-190.4C744.87,-190.4 753.64,-188.89 774.73,-188.5"/>
<polygon fill="black" stroke="black" points="775.03,-191.99 785,-188.4 774.97,-184.99 775.03,-191.99"/>
</g>
<!-- node_3 -->
<g id="node5" class="node">
<title>node_3</title>
<g id="a_node5"><a xlink:title="Latch::with_forget_behavior(&lt;bool as Default&gt;::default(), &lt;bool as Default&gt;::default(), 5000000000)">
<polygon fill="none" stroke="black" points="385.5,-45.4 385.5,-91.4 503.5,-91.4 503.5,-45.4 385.5,-45.4"/>
<text text-anchor="middle" x="403.5" y="-76.2" font-family="Times,serif" font-size="14.00">[0]</text>
<polyline fill="none" stroke="black" points="385.5,-68.4 421.5,-68.4 "/>
<text text-anchor="middle" x="403.5" y="-53.2" font-family="Times,serif" font-size="14.00">[1]</text>
<polyline fill="none" stroke="black" points="421.5,-45.4 421.5,-91.4 "/>
<text text-anchor="middle" x="462.5" y="-64.7" font-family="Times,serif" font-size="14.00">#3:Latch</text>
</a>
</g>
</g>
<!-- node_2&#45;&gt;node_3 -->
<g id="edge5" class="edge">
<title>node_2:output&#45;&gt;node_3:input0</title>
<path fill="none" stroke="black" d="M320.5,-73.4C345.43,-73.4 353.78,-78.72 374.43,-80.09"/>
<polygon fill="black" stroke="black" points="374.39,-83.59 384.5,-80.4 374.62,-76.59 374.39,-83.59"/>
</g>
<!-- node_4 -->
<g id="node6" class="node">
<title>node_4</title>
<g id="a_node6"><a xlink:title="SignalMapper::new(|lhs:&amp;_| *lhs ^ true)">
<polygon fill="none" stroke="black" points="570,-52.4 570,-88.4 749,-88.4 749,-52.4 570,-52.4"/>
<text text-anchor="middle" x="588" y="-66.7" font-family="Times,serif" font-size="14.00">[0]</text>
<polyline fill="none" stroke="black" points="606,-52.4 606,-88.4 "/>
<text text-anchor="middle" x="677.5" y="-66.7" font-family="Times,serif" font-size="14.00">#4:SignalMapper</text>
</a>
</g>
</g>
<!-- node_3&#45;&gt;node_4 -->
<g id="edge7" class="edge">
<title>node_3:output&#45;&gt;node_4:input0</title>
<path fill="none" stroke="black" d="M504.5,-68.4C529.87,-68.4 538.64,-69.92 559.73,-70.31"/>
<polygon fill="black" stroke="black" points="559.97,-73.82 570,-70.4 560.03,-66.82 559.97,-73.82"/>
</g>
<!-- node_4&#45;&gt;node_5 -->
<g id="edge9" class="edge">
<title>node_4:output&#45;&gt;node_5:input0</title>
<path fill="none" stroke="black" d="M750.5,-70.4C801.08,-70.4 740.75,-171.54 774.87,-186.55"/>
<polygon fill="black" stroke="black" points="774.53,-190.05 785,-188.4 775.79,-183.16 774.53,-190.05"/>
</g>
<!-- node_7 -->
<g id="node9" class="node">
<title>node_7</title>
<g id="a_node9"><a xlink:title="SignalMapper::new(|(lhs, rhs):&amp;(_,_)| *lhs &amp;&amp; *rhs)">
<polygon fill="none" stroke="black" points="1000,-170.4 1000,-206.4 1179,-206.4 1179,-170.4 1000,-170.4"/>
<text text-anchor="middle" x="1018" y="-184.7" font-family="Times,serif" font-size="14.00">[0]</text>
<polyline fill="none" stroke="black" points="1036,-170.4 1036,-206.4 "/>
<text text-anchor="middle" x="1107.5" y="-184.7" font-family="Times,serif" font-size="14.00">#7:SignalMapper</text>
</a>
</g>
</g>
<!-- node_5&#45;&gt;node_7 -->
<g id="edge11" class="edge">
<title>node_5:output&#45;&gt;node_7:input0</title>
<path fill="none" stroke="black" d="M964,-188.4C975.26,-188.4 980.32,-188.4 988.28,-188.4"/>
<polygon fill="black" stroke="black" points="988.5,-191.9 998.5,-188.4 988.5,-184.9 988.5,-191.9"/>
</g>
<!-- node_6&#45;&gt;node_7 -->
<g id="edge12" class="edge">
<title>node_6:output&#45;&gt;node_7:input0</title>
<path fill="none" stroke="black" d="M320.5,-242.4C606.73,-242.4 696.22,-317.53 964,-216.4 978.58,-210.9 979.33,-196.65 988.71,-190.88"/>
<polygon fill="black" stroke="black" points="989.66,-194.25 998.5,-188.4 987.95,-187.46 989.66,-194.25"/>
</g>
<!-- node_9 -->
<g id="node11" class="node">
<title>node_9</title>
<g id="a_node11"><a xlink:title="SignalMapper::new(|(lhs, rhs):&amp;(_,_)| *lhs &amp;&amp; *rhs)">
<polygon fill="none" stroke="black" points="1215,-169.4 1215,-205.4 1394,-205.4 1394,-169.4 1215,-169.4"/>
<text text-anchor="middle" x="1233" y="-183.7" font-family="Times,serif" font-size="14.00">[0]</text>
<polyline fill="none" stroke="black" points="1251,-169.4 1251,-205.4 "/>
<text text-anchor="middle" x="1322.5" y="-183.7" font-family="Times,serif" font-size="14.00">#9:SignalMapper</text>
</a>
</g>
</g>
<!-- node_7&#45;&gt;node_9 -->
<g id="edge14" class="edge">
<title>node_7:output&#45;&gt;node_9:input0</title>
<path fill="none" stroke="black" d="M1180.5,-188.4C1191.77,-188.4 1196.82,-187.87 1204.78,-187.58"/>
<polygon fill="black" stroke="black" points="1205.06,-191.07 1215,-187.4 1204.94,-184.08 1205.06,-191.07"/>
</g>
<!-- node_8&#45;&gt;node_9 -->
<g id="edge15" class="edge">
<title>node_8:output&#45;&gt;node_9:input0</title>
<path fill="none" stroke="black" d="M1180.5,-49.4C1239.77,-49.4 1162.67,-170.69 1204.89,-185.85"/>
<polygon fill="black" stroke="black" points="1204.59,-189.35 1215,-187.4 1205.65,-182.43 1204.59,-189.35"/>
</g>
<!-- node_10 -->
<g id="node12" class="node">
<title>node_10</title>
<g id="a_node12"><a xlink:title="DurationTrue::default()">
<polygon fill="none" stroke="black" points="1430,-169.4 1430,-205.4 1613,-205.4 1613,-169.4 1430,-169.4"/>
<text text-anchor="middle" x="1448" y="-183.7" font-family="Times,serif" font-size="14.00">[0]</text>
<polyline fill="none" stroke="black" points="1466,-169.4 1466,-205.4 "/>
<text text-anchor="middle" x="1539.5" y="-183.7" font-family="Times,serif" font-size="14.00">#10:DurationTrue</text>
</a>
</g>
</g>
<!-- node_9&#45;&gt;node_10 -->
<g id="edge16" class="edge">
<title>node_9:output&#45;&gt;node_10:input0</title>
<path fill="none" stroke="black" d="M1395.5,-187.4C1406.04,-187.4 1410.9,-187.4 1418.25,-187.4"/>
<polygon fill="black" stroke="black" points="1418.5,-190.9 1428.5,-187.4 1418.5,-183.9 1418.5,-190.9"/>
</g>
<!-- output_totalPlayTime -->
<g id="node13" class="node">
<title>output_totalPlayTime</title>
<polygon fill="gray" stroke="black" points="1765,-205.4 1649,-205.4 1649,-169.4 1765,-169.4 1765,-205.4"/>
<text text-anchor="middle" x="1707" y="-183.7" font-family="Times,serif" font-size="14.00">totalPlayTime</text>
</g>
<!-- node_10&#45;&gt;output_totalPlayTime -->
<g id="edge17" class="edge">
<title>node_10:output&#45;&gt;output_totalPlayTime</title>
<path fill="none" stroke="black" d="M1614.5,-187.4C1622.32,-187.4 1630.51,-187.4 1638.65,-187.4"/>
<polygon fill="black" stroke="black" points="1638.89,-190.9 1648.89,-187.4 1638.89,-183.9 1638.89,-190.9"/>
</g>
<!-- Const_true -->
<g id="node14" class="node">
<title>Const_true</title>
<ellipse fill="none" stroke="black" cx="229.5" cy="-149.4" rx="61.99" ry="18"/>
<text text-anchor="middle" x="229.5" y="-145.7" font-family="Times,serif" font-size="14.00">Const_true</text>
</g>
<!-- Const_true&#45;&gt;node_1 -->
<g id="edge3" class="edge">
<title>Const_true&#45;&gt;node_1:input1</title>
<path fill="none" stroke="black" d="M290.81,-151.6C352.15,-154.2 449.88,-159.37 534,-168.4 559.62,-171.16 568.01,-176.75 589.43,-178.1"/>
<polygon fill="black" stroke="black" points="589.4,-181.6 599.5,-178.4 589.61,-174.61 589.4,-181.6"/>
</g>
<!-- Const_true&#45;&gt;node_3 -->
<g id="edge6" class="edge">
<title>Const_true&#45;&gt;node_3:input1</title>
<path fill="none" stroke="black" d="M287.32,-143C301.01,-139.73 315.11,-134.81 327,-127.4 358.23,-107.95 346.73,-65.44 374.52,-57.65"/>
<polygon fill="black" stroke="black" points="375.01,-61.11 384.5,-56.4 374.14,-54.17 375.01,-61.11"/>
</g>
</g>
</svg>
