<?xml version="1.0" encoding="UTF-8" standalone="no"?>
<!DOCTYPE svg PUBLIC "-//W3C//DTD SVG 1.1//EN"
 "http://www.w3.org/Graphics/SVG/1.1/DTD/svg11.dtd">
<!-- Generated by graphviz version 2.43.0 (0)
 -->
<!-- Title: %3 Pages: 1 -->
<svg width="1773pt" height="325pt"
 viewBox="0.00 0.00 1773.00 324.50" xmlns="http://www.w3.org/2000/svg" xmlns:xlink="http://www.w3.org/1999/xlink">
<g id="graph0" class="graph" transform="scale(1 1) rotate(0) translate(4 320.5)">
<title>%3</title>
<polygon fill="white" stroke="transparent" points="-4,4 -4,-320.5 1769,-320.5 1769,4 -4,4"/>
<g id="clust2" class="cluster">
<title>sg_0</title>
<g id="a_clust2"><a xlink:title=" &#160;&#160;&#160;&#160;&#160;&#160;&#160;(input.player_state == &quot;buffer&quot;) &amp;\">
<polygon fill="none" stroke="black" points="132,-54.5 132,-131.5 327,-131.5 327,-54.5 132,-54.5"/>
<text text-anchor="middle" x="229.5" y="-116.3" font-family="Times,serif" font-size="14.00">cidr.py:16</text>
</a>
</g>
</g>
<g id="clust3" class="cluster">
<title>sg_1</title>
<g id="a_clust3"><a xlink:title="target = has_been_true(input.user_action == &quot;play&quot;) &amp;\">
<polygon fill="none" stroke="black" points="347,-111.5 347,-198.5 1402,-198.5 1402,-111.5 347,-111.5"/>
<text text-anchor="middle" x="874.5" y="-183.3" font-family="Times,serif" font-size="14.00">cidr.py:14</text>
</a>
</g>
</g>
<g id="clust4" class="cluster">
<title>sg_2</title>
<g id="a_clust4"><a xlink:title=" &#160;&#160;&#160;&#160;&#160;~has_been_true(input.user_action == &quot;seek&quot;, 5_000_000_000) &amp;\">
<polygon fill="none" stroke="black" points="132,-221.5 132,-308.5 757,-308.5 757,-221.5 132,-221.5"/>
<text text-anchor="middle" x="444.5" y="-293.3" font-family="Times,serif" font-size="14.00">cidr.py:15</text>
</a>
</g>
</g>
<g id="clust5" class="cluster">
<title>sg_3</title>
<g id="a_clust5"><a xlink:title=" &#160;&#160;&#160;&#160;&#160;&#160;&#160;(input.cdn == &quot;cdn1&quot;)">
<polygon fill="none" stroke="black" points="992,-17.5 992,-94.5 1187,-94.5 1187,-17.5 992,-17.5"/>
<text text-anchor="middle" x="1089.5" y="-79.3" font-family="Times,serif" font-size="14.00">cidr.py:17</text>
</a>
</g>
</g>
<g id="clust6" class="cluster">
<title>sg_4</title>
<g id="a_clust6"><a xlink:title="target.measure_duration_true().add_metric(&quot;totalPlayTime&quot;)">
<polygon fill="none" stroke="black" points="1422,-111.5 1422,-188.5 1621,-188.5 1621,-111.5 1422,-111.5"/>
<text text-anchor="middle" x="1521.5" y="-173.3" font-family="Times,serif" font-size="14.00">cidr.py:18</text>
</a>
</g>
</g>
<!-- input -->
<g id="node1" class="node">
<title>input</title>
<polygon fill="lightgrey" stroke="black" points="0,-0.5 0,-184.5 104,-184.5 104,-0.5 0,-0.5"/>
<text text-anchor="middle" x="52" y="-169.3" font-family="Times,serif" font-size="14.00">user_action</text>
<polyline fill="none" stroke="black" points="0,-161.5 104,-161.5 "/>
<text text-anchor="middle" x="52" y="-146.3" font-family="Times,serif" font-size="14.00">&lt;clk&gt;</text>
<polyline fill="none" stroke="black" points="0,-138.5 104,-138.5 "/>
<text text-anchor="middle" x="52" y="-123.3" font-family="Times,serif" font-size="14.00">network</text>
<polyline fill="none" stroke="black" points="0,-115.5 104,-115.5 "/>
<text text-anchor="middle" x="52" y="-100.3" font-family="Times,serif" font-size="14.00">&lt;clk&gt;</text>
<polyline fill="none" stroke="black" points="0,-92.5 104,-92.5 "/>
<text text-anchor="middle" x="52" y="-77.3" font-family="Times,serif" font-size="14.00">player_state</text>
<polyline fill="none" stroke="black" points="0,-69.5 104,-69.5 "/>
<text text-anchor="middle" x="52" y="-54.3" font-family="Times,serif" font-size="14.00">&lt;clk&gt;</text>
<polyline fill="none" stroke="black" points="0,-46.5 104,-46.5 "/>
<text text-anchor="middle" x="52" y="-31.3" font-family="Times,serif" font-size="14.00">cdn</text>
<polyline fill="none" stroke="black" points="0,-23.5 104,-23.5 "/>
<text text-anchor="middle" x="52" y="-8.3" font-family="Times,serif" font-size="14.00">&lt;clk&gt;</text>
</g>
<!-- node_0 -->
<g id="node2" class="node">
<title>node_0</title>
<g id="a_node2"><a xlink:title="SignalMapper::new(|lhs:&amp;String| *lhs == &quot;play&quot;)">
<polygon fill="none" stroke="black" points="355,-130.5 355,-166.5 534,-166.5 534,-130.5 355,-130.5"/>
<text text-anchor="middle" x="373" y="-144.8" font-family="Times,serif" font-size="14.00">[0]</text>
<polyline fill="none" stroke="black" points="391,-130.5 391,-166.5 "/>
<text text-anchor="middle" x="462.5" y="-144.8" font-family="Times,serif" font-size="14.00">#0:SignalMapper</text>
</a>
</g>
</g>
<!-- input&#45;&gt;node_0 -->
<g id="edge1" class="edge">
<title>input:user_action&#45;&gt;node_0:input0</title>
<path fill="none" stroke="black" d="M104,-173.5C116.64,-173.5 119.47,-170.18 132,-168.5 226.52,-155.82 252.83,-148.99 343.34,-148.53"/>
<polygon fill="black" stroke="black" points="343.51,-152.03 353.5,-148.5 343.49,-145.03 343.51,-152.03"/>
</g>
<!-- node_2 -->
<g id="node4" class="node">
<title>node_2</title>
<g id="a_node4"><a xlink:title="SignalMapper::new(|lhs:&amp;String| *lhs == &quot;seek&quot;)">
<polygon fill="none" stroke="black" points="140,-236.5 140,-272.5 319,-272.5 319,-236.5 140,-236.5"/>
<text text-anchor="middle" x="158" y="-250.8" font-family="Times,serif" font-size="14.00">[0]</text>
<polyline fill="none" stroke="black" points="176,-236.5 176,-272.5 "/>
<text text-anchor="middle" x="247.5" y="-250.8" font-family="Times,serif" font-size="14.00">#2:SignalMapper</text>
</a>
</g>
</g>
<!-- input&#45;&gt;node_2 -->
<g id="edge4" class="edge">
<title>input:user_action&#45;&gt;node_2:input0</title>
<path fill="none" stroke="black" d="M104,-173.5C129.08,-173.5 113.85,-205.19 132,-222.5 137.32,-227.57 145.01,-226.88 150.56,-227.84"/>
<polygon fill="black" stroke="black" points="148.19,-230.44 157.5,-235.5 153.38,-225.74 148.19,-230.44"/>
</g>
<!-- node_6 -->
<g id="node8" class="node">
<title>node_6</title>
<g id="a_node8"><a xlink:title="SignalMapper::new(|lhs:&amp;String| *lhs == &quot;buffer&quot;)">
<polygon fill="none" stroke="black" points="140,-63.5 140,-99.5 319,-99.5 319,-63.5 140,-63.5"/>
<text text-anchor="middle" x="158" y="-77.8" font-family="Times,serif" font-size="14.00">[0]</text>
<polyline fill="none" stroke="black" points="176,-63.5 176,-99.5 "/>
<text text-anchor="middle" x="247.5" y="-77.8" font-family="Times,serif" font-size="14.00">#6:SignalMapper</text>
</a>
</g>
</g>
<!-- input&#45;&gt;node_6 -->
<g id="edge10" class="edge">
<title>input:player_state&#45;&gt;node_6:input0</title>
<path fill="none" stroke="black" d="M104,-80.5C115.27,-80.5 120.32,-81.04 128.28,-81.33"/>
<polygon fill="black" stroke="black" points="128.44,-84.83 138.5,-81.5 128.56,-77.83 128.44,-84.83"/>
</g>
<!-- node_8 -->
<g id="node10" class="node">
<title>node_8</title>
<g id="a_node10"><a xlink:title="SignalMapper::new(|lhs:&amp;String| *lhs == &quot;cdn1&quot;)">
<polygon fill="none" stroke="black" points="1000,-26.5 1000,-62.5 1179,-62.5 1179,-26.5 1000,-26.5"/>
<text text-anchor="middle" x="1018" y="-40.8" font-family="Times,serif" font-size="14.00">[0]</text>
<polyline fill="none" stroke="black" points="1036,-26.5 1036,-62.5 "/>
<text text-anchor="middle" x="1107.5" y="-40.8" font-family="Times,serif" font-size="14.00">#8:SignalMapper</text>
</a>
</g>
</g>
<!-- input&#45;&gt;node_8 -->
<g id="edge13" class="edge">
<title>input:cdn&#45;&gt;node_8:input0</title>
<path fill="none" stroke="black" d="M104,-34.5C254.89,-34.5 292.61,-34.5 443.5,-34.5 443.5,-34.5 443.5,-34.5 660.5,-34.5 807.27,-34.5 846.4,-44.04 988.12,-44.48"/>
<polygon fill="black" stroke="black" points="988.49,-47.98 998.5,-44.5 988.51,-40.98 988.49,-47.98"/>
</g>
<!-- node_1 -->
<g id="node3" class="node">
<title>node_1</title>
<g id="a_node3"><a xlink:title="Latch::&lt;bool&gt;::default()">
<polygon fill="none" stroke="black" points="600.5,-120.5 600.5,-166.5 718.5,-166.5 718.5,-120.5 600.5,-120.5"/>
<text text-anchor="middle" x="618.5" y="-151.3" font-family="Times,serif" font-size="14.00">[0]</text>
<polyline fill="none" stroke="black" points="600.5,-143.5 636.5,-143.5 "/>
<text text-anchor="middle" x="618.5" y="-128.3" font-family="Times,serif" font-size="14.00">[1]</text>
<polyline fill="none" stroke="black" points="636.5,-120.5 636.5,-166.5 "/>
<text text-anchor="middle" x="677.5" y="-139.8" font-family="Times,serif" font-size="14.00">#1:Latch</text>
</a>
</g>
</g>
<!-- node_0&#45;&gt;node_1 -->
<g id="edge2" class="edge">
<title>node_0:output&#45;&gt;node_1:input0</title>
<path fill="none" stroke="black" d="M534,-148.5C559.62,-148.5 568.14,-153.86 589.48,-155.2"/>
<polygon fill="black" stroke="black" points="589.4,-158.7 599.5,-155.5 589.61,-151.7 589.4,-158.7"/>
</g>
<!-- node_5 -->
<g id="node7" class="node">
<title>node_5</title>
<g id="a_node7"><a xlink:title="SignalMapper::new(|(lhs, rhs):&amp;(_,_)| *lhs &amp;&amp; *rhs)">
<polygon fill="none" stroke="black" points="785,-125.5 785,-161.5 964,-161.5 964,-125.5 785,-125.5"/>
<text text-anchor="middle" x="803" y="-139.8" font-family="Times,serif" font-size="14.00">[0]</text>
<polyline fill="none" stroke="black" points="821,-125.5 821,-161.5 "/>
<text text-anchor="middle" x="892.5" y="-139.8" font-family="Times,serif" font-size="14.00">#5:SignalMapper</text>
</a>
</g>
</g>
<!-- node_1&#45;&gt;node_5 -->
<g id="edge8" class="edge">
<title>node_1:output&#45;&gt;node_5:input0</title>
<path fill="none" stroke="black" d="M719.5,-143.5C744.86,-143.5 753.65,-143.5 774.74,-143.5"/>
<polygon fill="black" stroke="black" points="775,-147 785,-143.5 775,-140 775,-147"/>
</g>
<!-- node_3 -->
<g id="node5" class="node">
<title>node_3</title>
<g id="a_node5"><a xlink:title="Latch::with_forget_behavior(&lt;bool as Default&gt;::default(), &lt;bool as Default&gt;::default(), 5000000000)">
<polygon fill="none" stroke="black" points="385.5,-230.5 385.5,-276.5 503.5,-276.5 503.5,-230.5 385.5,-230.5"/>
<text text-anchor="middle" x="403.5" y="-261.3" font-family="Times,serif" font-size="14.00">[0]</text>
<polyline fill="none" stroke="black" points="385.5,-253.5 421.5,-253.5 "/>
<text text-anchor="middle" x="403.5" y="-238.3" font-family="Times,serif" font-size="14.00">[1]</text>
<polyline fill="none" stroke="black" points="421.5,-230.5 421.5,-276.5 "/>
<text text-anchor="middle" x="462.5" y="-249.8" font-family="Times,serif" font-size="14.00">#3:Latch</text>
</a>
</g>
</g>
<!-- node_2&#45;&gt;node_3 -->
<g id="edge5" class="edge">
<title>node_2:output&#45;&gt;node_3:input0</title>
<path fill="none" stroke="black" d="M320.5,-254.5C345.64,-254.5 353.64,-262.85 374.37,-265"/>
<polygon fill="black" stroke="black" points="374.34,-268.5 384.5,-265.5 374.69,-261.51 374.34,-268.5"/>
</g>
<!-- node_4 -->
<g id="node6" class="node">
<title>node_4</title>
<g id="a_node6"><a xlink:title="SignalMapper::new(|lhs:&amp;_| *lhs ^ true)">
<polygon fill="none" stroke="black" points="570,-232.5 570,-268.5 749,-268.5 749,-232.5 570,-232.5"/>
<text text-anchor="middle" x="588" y="-246.8" font-family="Times,serif" font-size="14.00">[0]</text>
<polyline fill="none" stroke="black" points="606,-232.5 606,-268.5 "/>
<text text-anchor="middle" x="677.5" y="-246.8" font-family="Times,serif" font-size="14.00">#4:SignalMapper</text>
</a>
</g>
</g>
<!-- node_3&#45;&gt;node_4 -->
<g id="edge7" class="edge">
<title>node_3:output&#45;&gt;node_4:input0</title>
<path fill="none" stroke="black" d="M504.5,-253.5C529.89,-253.5 538.63,-251.22 559.73,-250.64"/>
<polygon fill="black" stroke="black" points="560.05,-254.13 570,-250.5 559.95,-247.13 560.05,-254.13"/>
</g>
<!-- node_4&#45;&gt;node_5 -->
<g id="edge9" class="edge">
<title>node_4:output&#45;&gt;node_5:input0</title>
<path fill="none" stroke="black" d="M750.5,-250.5C796.37,-250.5 744.99,-160.33 774.91,-145.54"/>
<polygon fill="black" stroke="black" points="775.89,-148.91 785,-143.5 774.5,-142.05 775.89,-148.91"/>
</g>
<!-- node_7 -->
<g id="node9" class="node">
<title>node_7</title>
<g id="a_node9"><a xlink:title="SignalMapper::new(|(lhs, rhs):&amp;(_,_)| *lhs &amp;&amp; *rhs)">
<polygon fill="none" stroke="black" points="1000,-120.5 1000,-156.5 1179,-156.5 1179,-120.5 1000,-120.5"/>
<text text-anchor="middle" x="1018" y="-134.8" font-family="Times,serif" font-size="14.00">[0]</text>
<polyline fill="none" stroke="black" points="1036,-120.5 1036,-156.5 "/>
<text text-anchor="middle" x="1107.5" y="-134.8" font-family="Times,serif" font-size="14.00">#7:SignalMapper</text>
</a>
</g>
</g>
<!-- node_5&#45;&gt;node_7 -->
<g id="edge11" class="edge">
<title>node_5:output&#45;&gt;node_7:input0</title>
<path fill="none" stroke="black" d="M964,-143.5C975.5,-143.5 980.4,-140.75 988.5,-139.33"/>
<polygon fill="black" stroke="black" points="988.82,-142.81 998.5,-138.5 988.25,-135.83 988.82,-142.81"/>
</g>
<!-- node_6&#45;&gt;node_7 -->
<g id="edge12" class="edge">
<title>node_6:output&#45;&gt;node_7:input0</title>
<path fill="none" stroke="black" d="M320.5,-81.5C606.9,-81.5 692.18,-25.3 964,-115.5 977.53,-119.99 979.74,-131.29 988.58,-136.18"/>
<polygon fill="black" stroke="black" points="987.97,-139.64 998.5,-138.5 989.56,-132.82 987.97,-139.64"/>
</g>
<!-- node_9 -->
<g id="node11" class="node">
<title>node_9</title>
<g id="a_node11"><a xlink:title="SignalMapper::new(|(lhs, rhs):&amp;(_,_)| *lhs &amp;&amp; *rhs)">
<polygon fill="none" stroke="black" points="1215,-120.5 1215,-156.5 1394,-156.5 1394,-120.5 1215,-120.5"/>
<text text-anchor="middle" x="1233" y="-134.8" font-family="Times,serif" font-size="14.00">[0]</text>
<polyline fill="none" stroke="black" points="1251,-120.5 1251,-156.5 "/>
<text text-anchor="middle" x="1322.5" y="-134.8" font-family="Times,serif" font-size="14.00">#9:SignalMapper</text>
</a>
</g>
</g>
<!-- node_7&#45;&gt;node_9 -->
<g id="edge14" class="edge">
<title>node_7:output&#45;&gt;node_9:input0</title>
<path fill="none" stroke="black" d="M1180.5,-138.5C1191.76,-138.5 1196.82,-138.5 1204.78,-138.5"/>
<polygon fill="black" stroke="black" points="1205,-142 1215,-138.5 1205,-135 1205,-142"/>
</g>
<!-- node_8&#45;&gt;node_9 -->
<g id="edge15" class="edge">
<title>node_8:output&#45;&gt;node_9:input0</title>
<path fill="none" stroke="black" d="M1180.5,-44.5C1220.83,-44.5 1179.85,-121.7 1204.93,-136.18"/>
<polygon fill="black" stroke="black" points="1204.47,-139.66 1215,-138.5 1206.04,-132.84 1204.47,-139.66"/>
</g>
<!-- node_10 -->
<g id="node12" class="node">
<title>node_10</title>
<g id="a_node12"><a xlink:title="DurationTrue::default()">
<polygon fill="none" stroke="black" points="1430,-120.5 1430,-156.5 1613,-156.5 1613,-120.5 1430,-120.5"/>
<text text-anchor="middle" x="1448" y="-134.8" font-family="Times,serif" font-size="14.00">[0]</text>
<polyline fill="none" stroke="black" points="1466,-120.5 1466,-156.5 "/>
<text text-anchor="middle" x="1539.5" y="-134.8" font-family="Times,serif" font-size="14.00">#10:DurationTrue</text>
</a>
</g>
</g>
<!-- node_9&#45;&gt;node_10 -->
<g id="edge16" class="edge">
<title>node_9:output&#45;&gt;node_10:input0</title>
<path fill="none" stroke="black" d="M1395.5,-138.5C1406.04,-138.5 1410.9,-138.5 1418.25,-138.5"/>
<polygon fill="black" stroke="black" points="1418.5,-142 1428.5,-138.5 1418.5,-135 1418.5,-142"/>
</g>
<!-- output_totalPlayTime -->
<g id="node13" class="node">
<title>output_totalPlayTime</title>
<polygon fill="gray" stroke="black" points="1765,-156.5 1649,-156.5 1649,-120.5 1765,-120.5 1765,-156.5"/>
<text text-anchor="middle" x="1707" y="-134.8" font-family="Times,serif" font-size="14.00">totalPlayTime</text>
</g>
<!-- node_10&#45;&gt;output_totalPlayTime -->
<g id="edge17" class="edge">
<title>node_10:output&#45;&gt;output_totalPlayTime</title>
<path fill="none" stroke="black" d="M1614.5,-138.5C1622.32,-138.5 1630.51,-138.5 1638.65,-138.5"/>
<polygon fill="black" stroke="black" points="1638.89,-142 1648.89,-138.5 1638.89,-135 1638.89,-142"/>
</g>
<!-- Const_true -->
<g id="node14" class="node">
<title>Const_true</title>
<ellipse fill="none" stroke="black" cx="229.5" cy="-195.5" rx="61.99" ry="18"/>
<text text-anchor="middle" x="229.5" y="-191.8" font-family="Times,serif" font-size="14.00">Const_true</text>
</g>
<!-- Const_true&#45;&gt;node_1 -->
<g id="edge3" class="edge">
<title>Const_true&#45;&gt;node_1:input1</title>
<path fill="none" stroke="black" d="M288.49,-200.86C350.93,-204.6 452.28,-204.7 534,-176.5 563.87,-166.2 564.45,-138.32 589.52,-132.55"/>
<polygon fill="black" stroke="black" points="589.92,-136.03 599.5,-131.5 589.19,-129.07 589.92,-136.03"/>
</g>
<!-- Const_true&#45;&gt;node_3 -->
<g id="edge6" class="edge">
<title>Const_true&#45;&gt;node_3:input1</title>
<path fill="none" stroke="black" d="M281.52,-205.42C296.33,-208.76 312.43,-212.84 327,-217.5 349.77,-224.79 355.44,-237.38 374.38,-240.69"/>
<polygon fill="black" stroke="black" points="374.25,-244.19 384.5,-241.5 374.81,-237.21 374.25,-244.19"/>
</g>
</g>
</svg>
