<?xml version="1.0" encoding="UTF-8" standalone="no"?>
<!DOCTYPE svg PUBLIC "-//W3C//DTD SVG 1.1//EN"
 "http://www.w3.org/Graphics/SVG/1.1/DTD/svg11.dtd">
<!-- Generated by graphviz version 2.43.0 (0)
 -->
<!-- Title: %3 Pages: 1 -->
<svg width="1242pt" height="149pt"
 viewBox="0.00 0.00 1241.79 148.67" xmlns="http://www.w3.org/2000/svg" xmlns:xlink="http://www.w3.org/1999/xlink">
<g id="graph0" class="graph" transform="scale(1 1) rotate(0) translate(4 144.67)">
<title>%3</title>
<polygon fill="white" stroke="transparent" points="-4,4 -4,-144.67 1237.79,-144.67 1237.79,4 -4,4"/>
<g id="clust2" class="cluster">
<title>sg_0</title>
<g id="a_clust2"><a xlink:title="is_earliest_event = (StateMachine(clock = input.event.clock(), data = Const(1), transition_fn = &quot;|&amp;s, _| (s+1).min(2)&quot;) == 1)">
<polygon fill="none" stroke="black" points="152.79,-11 152.79,-98 560.79,-98 560.79,-11 152.79,-11"/>
<text text-anchor="middle" x="356.79" y="-82.8" font-family="Times,serif" font-size="14.00">earliest_event_to_state.py:12</text>
</a>
</g>
</g>
<g id="clust3" class="cluster">
<title>sg_1</title>
<g id="a_clust3"><a xlink:title="earliest_event_value.add_metric(&quot;earliestEventName&quot;)">
<polygon fill="none" stroke="black" points="825.79,-13 825.79,-90 1050.79,-90 1050.79,-13 825.79,-13"/>
<text text-anchor="middle" x="938.29" y="-74.8" font-family="Times,serif" font-size="14.00">earliest_event_to_state.py:14</text>
</a>
</g>
</g>
<g id="clust4" class="cluster">
<title>sg_2</title>
<g id="a_clust4"><a xlink:title="earliest_event_value = Latch(control = is_earliest_event, data = input.event, output_type = &quot;&amp;str&quot;)">
<polygon fill="none" stroke="black" points="580.79,-8 580.79,-95 805.79,-95 805.79,-8 580.79,-8"/>
<text text-anchor="middle" x="693.29" y="-79.8" font-family="Times,serif" font-size="14.00">earliest_event_to_state.py:13</text>
</a>
</g>
</g>
<!-- input -->
<g id="node1" class="node">
<title>input</title>
<polygon fill="lightgrey" stroke="black" points="31.89,-74 31.89,-120 92.89,-120 92.89,-74 31.89,-74"/>
<text text-anchor="middle" x="62.39" y="-104.8" font-family="Times,serif" font-size="14.00">event</text>
<polyline fill="none" stroke="black" points="31.89,-97 92.89,-97 "/>
<text text-anchor="middle" x="62.39" y="-81.8" font-family="Times,serif" font-size="14.00">&lt;clk&gt;</text>
</g>
<!-- node_0 -->
<g id="node2" class="node">
<title>node_0</title>
<g id="a_node2"><a xlink:title="StateMachine::new(0, |&amp;s, _| (s+1).min(2))">
<polygon fill="none" stroke="black" points="160.79,-20 160.79,-66 337.79,-66 337.79,-20 160.79,-20"/>
<text text-anchor="middle" x="178.79" y="-50.8" font-family="Times,serif" font-size="14.00">[0]</text>
<polyline fill="none" stroke="black" points="160.79,-43 196.79,-43 "/>
<text text-anchor="middle" x="178.79" y="-27.8" font-family="Times,serif" font-size="14.00">[1]</text>
<polyline fill="none" stroke="black" points="196.79,-20 196.79,-66 "/>
<text text-anchor="middle" x="267.29" y="-39.3" font-family="Times,serif" font-size="14.00">#0:StateMachine</text>
</a>
</g>
</g>
<!-- input&#45;&gt;node_0 -->
<g id="edge1" class="edge">
<title>input:event_clock&#45;&gt;node_0:input0</title>
<path fill="none" stroke="black" d="M94.39,-85C122.45,-85 126.78,-61.62 149.27,-56.14"/>
<polygon fill="black" stroke="black" points="149.75,-59.61 159.29,-55 148.96,-52.65 149.75,-59.61"/>
</g>
<!-- node_2 -->
<g id="node4" class="node">
<title>node_2</title>
<g id="a_node4"><a xlink:title="Latch::&lt;String&gt;::default()">
<polygon fill="none" stroke="black" points="633.79,-17 633.79,-63 751.79,-63 751.79,-17 633.79,-17"/>
<text text-anchor="middle" x="651.79" y="-47.8" font-family="Times,serif" font-size="14.00">[0]</text>
<polyline fill="none" stroke="black" points="633.79,-40 669.79,-40 "/>
<text text-anchor="middle" x="651.79" y="-24.8" font-family="Times,serif" font-size="14.00">[1]</text>
<polyline fill="none" stroke="black" points="669.79,-17 669.79,-63 "/>
<text text-anchor="middle" x="710.79" y="-36.3" font-family="Times,serif" font-size="14.00">#2:Latch</text>
</a>
</g>
</g>
<!-- input&#45;&gt;node_2 -->
<g id="edge5" class="edge">
<title>input:event&#45;&gt;node_2:input1</title>
<path fill="none" stroke="black" d="M94.39,-109C301.7,-109 370.42,-184.07 560.79,-102 599.47,-85.32 589.14,-36.91 622.68,-29.08"/>
<polygon fill="black" stroke="black" points="623.22,-32.54 632.79,-28 622.47,-25.58 623.22,-32.54"/>
</g>
<!-- node_1 -->
<g id="node3" class="node">
<title>node_1</title>
<g id="a_node3"><a xlink:title="SignalMapper::new(|lhs:&amp;_| *lhs == 1i32)">
<polygon fill="none" stroke="black" points="373.79,-27 373.79,-63 552.79,-63 552.79,-27 373.79,-27"/>
<text text-anchor="middle" x="391.79" y="-41.3" font-family="Times,serif" font-size="14.00">[0]</text>
<polyline fill="none" stroke="black" points="409.79,-27 409.79,-63 "/>
<text text-anchor="middle" x="481.29" y="-41.3" font-family="Times,serif" font-size="14.00">#1:SignalMapper</text>
</a>
</g>
</g>
<!-- node_0&#45;&gt;node_1 -->
<g id="edge3" class="edge">
<title>node_0:output&#45;&gt;node_1:input0</title>
<path fill="none" stroke="black" d="M337.79,-43C349.81,-43 355.03,-44.12 363.66,-44.69"/>
<polygon fill="black" stroke="black" points="363.69,-48.19 373.79,-45 363.9,-41.19 363.69,-48.19"/>
</g>
<!-- node_1&#45;&gt;node_2 -->
<g id="edge4" class="edge">
<title>node_1:output&#45;&gt;node_2:input0</title>
<path fill="none" stroke="black" d="M554.29,-45C585.62,-45 595.68,-50.6 622.53,-51.78"/>
<polygon fill="black" stroke="black" points="622.72,-55.29 632.79,-52 622.87,-48.29 622.72,-55.29"/>
</g>
<!-- node_3 -->
<g id="node5" class="node">
<title>node_3</title>
<g id="a_node5"><a xlink:title="Peek::default()">
<polygon fill="none" stroke="black" points="881.79,-22 881.79,-58 993.79,-58 993.79,-22 881.79,-22"/>
<text text-anchor="middle" x="899.79" y="-36.3" font-family="Times,serif" font-size="14.00">[0]</text>
<polyline fill="none" stroke="black" points="917.79,-22 917.79,-58 "/>
<text text-anchor="middle" x="955.79" y="-36.3" font-family="Times,serif" font-size="14.00">#3:Peek</text>
</a>
</g>
</g>
<!-- node_2&#45;&gt;node_3 -->
<g id="edge6" class="edge">
<title>node_2:output&#45;&gt;node_3:input0</title>
<path fill="none" stroke="black" d="M752.79,-40C806.12,-40 821.96,-40 870.6,-40"/>
<polygon fill="black" stroke="black" points="870.79,-43.5 880.79,-40 870.79,-36.5 870.79,-43.5"/>
</g>
<!-- output_earliestEventName -->
<g id="node6" class="node">
<title>output_earliestEventName</title>
<polygon fill="gray" stroke="black" points="1233.79,-58 1078.79,-58 1078.79,-22 1233.79,-22 1233.79,-58"/>
<text text-anchor="middle" x="1156.29" y="-36.3" font-family="Times,serif" font-size="14.00">earliestEventName</text>
</g>
<!-- node_3&#45;&gt;output_earliestEventName -->
<g id="edge7" class="edge">
<title>node_3:output&#45;&gt;output_earliestEventName</title>
<path fill="none" stroke="black" d="M994.79,-40C1018.68,-40 1044.58,-40 1068.45,-40"/>
<polygon fill="black" stroke="black" points="1068.55,-43.5 1078.55,-40 1068.55,-36.5 1068.55,-43.5"/>
</g>
<!-- Const_1i32 -->
<g id="node7" class="node">
<title>Const_1i32</title>
<ellipse fill="none" stroke="black" cx="62.39" cy="-31" rx="62.29" ry="18"/>
<text text-anchor="middle" x="62.39" y="-27.3" font-family="Times,serif" font-size="14.00">Const_1i32</text>
</g>
<!-- Const_1i32&#45;&gt;node_0 -->
<g id="edge2" class="edge">
<title>Const_1i32&#45;&gt;node_0:input1</title>
<path fill="none" stroke="black" d="M125.04,-31C133.05,-31 141.25,-31 149.27,-31"/>
<polygon fill="black" stroke="black" points="149.29,-34.5 159.29,-31 149.29,-27.5 149.29,-34.5"/>
</g>
</g>
</svg>
