<?xml version="1.0" encoding="UTF-8" standalone="no"?>
<!DOCTYPE svg PUBLIC "-//W3C//DTD SVG 1.1//EN"
 "http://www.w3.org/Graphics/SVG/1.1/DTD/svg11.dtd">
<!-- Generated by graphviz version 2.43.0 (0)
 -->
<!-- Title: %3 Pages: 1 -->
<svg width="956pt" height="167pt"
 viewBox="0.00 0.00 955.79 167.00" xmlns="http://www.w3.org/2000/svg" xmlns:xlink="http://www.w3.org/1999/xlink">
<g id="graph0" class="graph" transform="scale(1 1) rotate(0) translate(4 163)">
<title>%3</title>
<polygon fill="white" stroke="transparent" points="-4,4 -4,-163 951.79,-163 951.79,4 -4,4"/>
<g id="clust2" class="cluster">
<title>sg_0</title>
<g id="a_clust2"><a xlink:title=" &#160;&#160;&#160;.build_clock_filter()\">
<polygon fill="none" stroke="black" points="344.39,-46 344.39,-133 484.39,-133 484.39,-46 344.39,-46"/>
<text text-anchor="middle" x="414.39" y="-117.8" font-family="Times,serif" font-size="14.00">eventcount.py:13</text>
</a>
</g>
</g>
<g id="clust3" class="cluster">
<title>sg_1</title>
<g id="a_clust3"><a xlink:title=" &#160;&#160;&#160;.count_changes()\">
<polygon fill="none" stroke="black" points="507.79,-16 507.79,-103 691.79,-103 691.79,-16 507.79,-16"/>
<text text-anchor="middle" x="599.79" y="-87.8" font-family="Times,serif" font-size="14.00">eventcount.py:14</text>
</a>
</g>
</g>
<g id="clust4" class="cluster">
<title>sg_2</title>
<g id="a_clust4"><a xlink:title=" &#160;&#160;&#160;.filter_values(&quot;P&quot;)\">
<polygon fill="none" stroke="black" points="126,-74 126,-151 321,-151 321,-74 126,-74"/>
<text text-anchor="middle" x="223.5" y="-135.8" font-family="Times,serif" font-size="14.00">eventcount.py:12</text>
</a>
</g>
</g>
<g id="clust5" class="cluster">
<title>sg_3</title>
<g id="a_clust5"><a xlink:title=" &#160;&#160;&#160;.add_metric(&quot;pCount&quot;)">
<polygon fill="none" stroke="black" points="711.79,-21 711.79,-98 851.79,-98 851.79,-21 711.79,-21"/>
<text text-anchor="middle" x="781.79" y="-82.8" font-family="Times,serif" font-size="14.00">eventcount.py:15</text>
</a>
</g>
</g>
<!-- input -->
<g id="node1" class="node">
<title>input</title>
<polygon fill="lightgrey" stroke="black" points="0,-8 0,-100 98,-100 98,-8 0,-8"/>
<text text-anchor="middle" x="49" y="-84.8" font-family="Times,serif" font-size="14.00">user_action</text>
<polyline fill="none" stroke="black" points="0,-77 98,-77 "/>
<text text-anchor="middle" x="49" y="-61.8" font-family="Times,serif" font-size="14.00">&lt;clk&gt;</text>
<polyline fill="none" stroke="black" points="0,-54 98,-54 "/>
<text text-anchor="middle" x="49" y="-38.8" font-family="Times,serif" font-size="14.00">page</text>
<polyline fill="none" stroke="black" points="0,-31 98,-31 "/>
<text text-anchor="middle" x="49" y="-15.8" font-family="Times,serif" font-size="14.00">&lt;clk&gt;</text>
</g>
<!-- node_0 -->
<g id="node2" class="node">
<title>node_0</title>
<g id="a_node2"><a xlink:title="SignalMapper::new(|lhs:&amp;String| *lhs == &quot;P&quot;)">
<polygon fill="none" stroke="black" points="134,-83 134,-119 313,-119 313,-83 134,-83"/>
<text text-anchor="middle" x="152" y="-97.3" font-family="Times,serif" font-size="14.00">[0]</text>
<polyline fill="none" stroke="black" points="170,-83 170,-119 "/>
<text text-anchor="middle" x="241.5" y="-97.3" font-family="Times,serif" font-size="14.00">#0:SignalMapper</text>
</a>
</g>
</g>
<!-- input&#45;&gt;node_0 -->
<g id="edge1" class="edge">
<title>input:user_action&#45;&gt;node_0:input0</title>
<path fill="none" stroke="black" d="M98,-89C110.18,-89 114.36,-95.75 122.54,-99.12"/>
<polygon fill="black" stroke="black" points="122.02,-102.59 132.5,-101 123.32,-95.71 122.02,-102.59"/>
</g>
<!-- node_1 -->
<g id="node3" class="node">
<title>node_1</title>
<g id="a_node3"><a xlink:title="Latch::&lt;u64&gt;::default()">
<polygon fill="none" stroke="black" points="355.39,-55 355.39,-101 473.39,-101 473.39,-55 355.39,-55"/>
<text text-anchor="middle" x="373.39" y="-85.8" font-family="Times,serif" font-size="14.00">[0]</text>
<polyline fill="none" stroke="black" points="355.39,-78 391.39,-78 "/>
<text text-anchor="middle" x="373.39" y="-62.8" font-family="Times,serif" font-size="14.00">[1]</text>
<polyline fill="none" stroke="black" points="391.39,-55 391.39,-101 "/>
<text text-anchor="middle" x="432.39" y="-74.3" font-family="Times,serif" font-size="14.00">#1:Latch</text>
</a>
</g>
</g>
<!-- input&#45;&gt;node_1 -->
<g id="edge3" class="edge">
<title>input:user_action_clock&#45;&gt;node_1:input1</title>
<path fill="none" stroke="black" d="M98,-66C208.5,-66 238.64,-66 344.28,-66"/>
<polygon fill="black" stroke="black" points="344.39,-69.5 354.39,-66 344.39,-62.5 344.39,-69.5"/>
</g>
<!-- node_0&#45;&gt;node_1 -->
<g id="edge2" class="edge">
<title>node_0:output&#45;&gt;node_1:input0</title>
<path fill="none" stroke="black" d="M314.5,-101C328.87,-101 333.91,-94.29 344.2,-91.35"/>
<polygon fill="black" stroke="black" points="344.94,-94.78 354.39,-90 344.02,-87.84 344.94,-94.78"/>
</g>
<!-- node_2 -->
<g id="node4" class="node">
<title>node_2</title>
<g id="a_node4"><a xlink:title="Accumulator::&lt;i32,_, _&gt;::with_event_filter(Default::default(), |_| true)">
<polygon fill="none" stroke="black" points="515.79,-25 515.79,-71 683.79,-71 683.79,-25 515.79,-25"/>
<text text-anchor="middle" x="533.79" y="-55.8" font-family="Times,serif" font-size="14.00">[0]</text>
<polyline fill="none" stroke="black" points="515.79,-48 551.79,-48 "/>
<text text-anchor="middle" x="533.79" y="-32.8" font-family="Times,serif" font-size="14.00">[1]</text>
<polyline fill="none" stroke="black" points="551.79,-25 551.79,-71 "/>
<text text-anchor="middle" x="617.79" y="-44.3" font-family="Times,serif" font-size="14.00">#2:Accumulator</text>
</a>
</g>
</g>
<!-- node_1&#45;&gt;node_2 -->
<g id="edge4" class="edge">
<title>node_1:output&#45;&gt;node_2:input0</title>
<path fill="none" stroke="black" d="M474.39,-78C490.06,-78 493.93,-66.57 504.8,-61.93"/>
<polygon fill="black" stroke="black" points="505.63,-65.33 514.79,-60 504.31,-58.46 505.63,-65.33"/>
</g>
<!-- node_3 -->
<g id="node5" class="node">
<title>node_3</title>
<g id="a_node5"><a xlink:title="Peek::default()">
<polygon fill="none" stroke="black" points="725.79,-30 725.79,-66 837.79,-66 837.79,-30 725.79,-30"/>
<text text-anchor="middle" x="743.79" y="-44.3" font-family="Times,serif" font-size="14.00">[0]</text>
<polyline fill="none" stroke="black" points="761.79,-30 761.79,-66 "/>
<text text-anchor="middle" x="799.79" y="-44.3" font-family="Times,serif" font-size="14.00">#3:Peek</text>
</a>
</g>
</g>
<!-- node_2&#45;&gt;node_3 -->
<g id="edge6" class="edge">
<title>node_2:output&#45;&gt;node_3:input0</title>
<path fill="none" stroke="black" d="M684.79,-48C698.68,-48 704.43,-48 714.76,-48"/>
<polygon fill="black" stroke="black" points="714.79,-51.5 724.79,-48 714.79,-44.5 714.79,-51.5"/>
</g>
<!-- output_pCount -->
<g id="node6" class="node">
<title>output_pCount</title>
<polygon fill="gray" stroke="black" points="947.79,-66 879.79,-66 879.79,-30 947.79,-30 947.79,-66"/>
<text text-anchor="middle" x="913.79" y="-44.3" font-family="Times,serif" font-size="14.00">pCount</text>
</g>
<!-- node_3&#45;&gt;output_pCount -->
<g id="edge7" class="edge">
<title>node_3:output&#45;&gt;output_pCount</title>
<path fill="none" stroke="black" d="M838.79,-48C848.71,-48 859.37,-48 869.43,-48"/>
<polygon fill="black" stroke="black" points="869.64,-51.5 879.64,-48 869.64,-44.5 869.64,-51.5"/>
</g>
<!-- Const_1i32 -->
<g id="node7" class="node">
<title>Const_1i32</title>
<ellipse fill="none" stroke="black" cx="414.39" cy="-18" rx="62.29" ry="18"/>
<text text-anchor="middle" x="414.39" y="-14.3" font-family="Times,serif" font-size="14.00">Const_1i32</text>
</g>
<!-- Const_1i32&#45;&gt;node_2 -->
<g id="edge5" class="edge">
<title>Const_1i32&#45;&gt;node_2:input1</title>
<path fill="none" stroke="black" d="M461.6,-29.91C475,-32.6 489.92,-34.9 504.37,-35.7"/>
<polygon fill="black" stroke="black" points="504.69,-39.21 514.79,-36 504.89,-32.22 504.69,-39.21"/>
</g>
</g>
</svg>
