<?xml version="1.0" encoding="UTF-8" standalone="no"?>
<!DOCTYPE svg PUBLIC "-//W3C//DTD SVG 1.1//EN"
 "http://www.w3.org/Graphics/SVG/1.1/DTD/svg11.dtd">
<!-- Generated by graphviz version 2.43.0 (0)
 -->
<!-- Title: %3 Pages: 1 -->
<svg width="1082pt" height="194pt"
 viewBox="0.00 0.00 1082.00 193.50" xmlns="http://www.w3.org/2000/svg" xmlns:xlink="http://www.w3.org/1999/xlink">
<g id="graph0" class="graph" transform="scale(1 1) rotate(0) translate(4 189.5)">
<title>%3</title>
<polygon fill="white" stroke="transparent" points="-4,4 -4,-189.5 1078,-189.5 1078,4 -4,4"/>
<g id="clust2" class="cluster">
<title>sg_0</title>
<g id="a_clust2"><a xlink:title="((input.player_state == &quot;play&quot;) &amp; (input.cdn == &quot;cdn1&quot;) &amp; (input.network == &quot;WIFI&quot;))\">
<polygon fill="none" stroke="black" points="132,-45.5 132,-177.5 757,-177.5 757,-45.5 132,-45.5"/>
<text text-anchor="middle" x="444.5" y="-162.3" font-family="Times,serif" font-size="14.00">playtime.py:13</text>
</a>
</g>
</g>
<g id="clust3" class="cluster">
<title>sg_1</title>
<g id="a_clust3"><a xlink:title=" &#160;&#160;&#160;.measure_duration_true() \">
<polygon fill="none" stroke="black" points="777,-45.5 777,-122.5 967,-122.5 967,-45.5 777,-45.5"/>
<text text-anchor="middle" x="872" y="-107.3" font-family="Times,serif" font-size="14.00">playtime.py:14</text>
</a>
</g>
</g>
<!-- input -->
<g id="node1" class="node">
<title>input</title>
<polygon fill="lightgrey" stroke="black" points="0,-0.5 0,-184.5 104,-184.5 104,-0.5 0,-0.5"/>
<text text-anchor="middle" x="52" y="-169.3" font-family="Times,serif" font-size="14.00">network</text>
<polyline fill="none" stroke="black" points="0,-161.5 104,-161.5 "/>
<text text-anchor="middle" x="52" y="-146.3" font-family="Times,serif" font-size="14.00">&lt;clk&gt;</text>
<polyline fill="none" stroke="black" points="0,-138.5 104,-138.5 "/>
<text text-anchor="middle" x="52" y="-123.3" font-family="Times,serif" font-size="14.00">player_state</text>
<polyline fill="none" stroke="black" points="0,-115.5 104,-115.5 "/>
<text text-anchor="middle" x="52" y="-100.3" font-family="Times,serif" font-size="14.00">&lt;clk&gt;</text>
<polyline fill="none" stroke="black" points="0,-92.5 104,-92.5 "/>
<text text-anchor="middle" x="52" y="-77.3" font-family="Times,serif" font-size="14.00">cdn</text>
<polyline fill="none" stroke="black" points="0,-69.5 104,-69.5 "/>
<text text-anchor="middle" x="52" y="-54.3" font-family="Times,serif" font-size="14.00">&lt;clk&gt;</text>
<polyline fill="none" stroke="black" points="0,-46.5 104,-46.5 "/>
<text text-anchor="middle" x="52" y="-31.3" font-family="Times,serif" font-size="14.00">user_action</text>
<polyline fill="none" stroke="black" points="0,-23.5 104,-23.5 "/>
<text text-anchor="middle" x="52" y="-8.3" font-family="Times,serif" font-size="14.00">&lt;clk&gt;</text>
</g>
<!-- node_0 -->
<g id="node2" class="node">
<title>node_0</title>
<g id="a_node2"><a xlink:title="SignalMapper::new(|lhs:&amp;String| *lhs == &quot;play&quot;)">
<polygon fill="none" stroke="black" points="140,-109.5 140,-145.5 319,-145.5 319,-109.5 140,-109.5"/>
<text text-anchor="middle" x="158" y="-123.8" font-family="Times,serif" font-size="14.00">[0]</text>
<polyline fill="none" stroke="black" points="176,-109.5 176,-145.5 "/>
<text text-anchor="middle" x="247.5" y="-123.8" font-family="Times,serif" font-size="14.00">#0:SignalMapper</text>
</a>
</g>
</g>
<!-- input&#45;&gt;node_0 -->
<g id="edge1" class="edge">
<title>input:player_state&#45;&gt;node_0:input0</title>
<path fill="none" stroke="black" d="M104,-127.5C115.26,-127.5 120.32,-127.5 128.28,-127.5"/>
<polygon fill="black" stroke="black" points="128.5,-131 138.5,-127.5 128.5,-124 128.5,-131"/>
</g>
<!-- node_1 -->
<g id="node3" class="node">
<title>node_1</title>
<g id="a_node3"><a xlink:title="SignalMapper::new(|lhs:&amp;String| *lhs == &quot;cdn1&quot;)">
<polygon fill="none" stroke="black" points="140,-54.5 140,-90.5 319,-90.5 319,-54.5 140,-54.5"/>
<text text-anchor="middle" x="158" y="-68.8" font-family="Times,serif" font-size="14.00">[0]</text>
<polyline fill="none" stroke="black" points="176,-54.5 176,-90.5 "/>
<text text-anchor="middle" x="247.5" y="-68.8" font-family="Times,serif" font-size="14.00">#1:SignalMapper</text>
</a>
</g>
</g>
<!-- input&#45;&gt;node_1 -->
<g id="edge2" class="edge">
<title>input:cdn&#45;&gt;node_1:input0</title>
<path fill="none" stroke="black" d="M104,-80.5C115.68,-80.5 120.36,-76.09 128.43,-73.82"/>
<polygon fill="black" stroke="black" points="129.04,-77.27 138.5,-72.5 128.13,-70.33 129.04,-77.27"/>
</g>
<!-- node_3 -->
<g id="node5" class="node">
<title>node_3</title>
<g id="a_node5"><a xlink:title="SignalMapper::new(|lhs:&amp;String| *lhs == &quot;WIFI&quot;)">
<polygon fill="none" stroke="black" points="355,-109.5 355,-145.5 534,-145.5 534,-109.5 355,-109.5"/>
<text text-anchor="middle" x="373" y="-123.8" font-family="Times,serif" font-size="14.00">[0]</text>
<polyline fill="none" stroke="black" points="391,-109.5 391,-145.5 "/>
<text text-anchor="middle" x="462.5" y="-123.8" font-family="Times,serif" font-size="14.00">#3:SignalMapper</text>
</a>
</g>
</g>
<!-- input&#45;&gt;node_3 -->
<g id="edge5" class="edge">
<title>input:network&#45;&gt;node_3:input0</title>
<path fill="none" stroke="black" d="M104,-173.5C199.89,-173.5 229.68,-190.38 319,-155.5 334.05,-149.62 335.1,-135.33 345.17,-129.77"/>
<polygon fill="black" stroke="black" points="346.04,-133.16 355,-127.5 344.47,-126.34 346.04,-133.16"/>
</g>
<!-- node_2 -->
<g id="node4" class="node">
<title>node_2</title>
<g id="a_node4"><a xlink:title="SignalMapper::new(|(lhs, rhs):&amp;(_,_)| *lhs &amp;&amp; *rhs)">
<polygon fill="none" stroke="black" points="355,-54.5 355,-90.5 534,-90.5 534,-54.5 355,-54.5"/>
<text text-anchor="middle" x="373" y="-68.8" font-family="Times,serif" font-size="14.00">[0]</text>
<polyline fill="none" stroke="black" points="391,-54.5 391,-90.5 "/>
<text text-anchor="middle" x="462.5" y="-68.8" font-family="Times,serif" font-size="14.00">#2:SignalMapper</text>
</a>
</g>
</g>
<!-- node_0&#45;&gt;node_2 -->
<g id="edge3" class="edge">
<title>node_0:output&#45;&gt;node_2:input0</title>
<path fill="none" stroke="black" d="M319,-127.5C343.88,-127.5 331.31,-87.62 345.07,-75.78"/>
<polygon fill="black" stroke="black" points="346.6,-78.96 355,-72.5 344.41,-72.31 346.6,-78.96"/>
</g>
<!-- node_1&#45;&gt;node_2 -->
<g id="edge4" class="edge">
<title>node_1:output&#45;&gt;node_2:input0</title>
<path fill="none" stroke="black" d="M319,-72.5C331,-72.5 336.25,-72.5 344.88,-72.5"/>
<polygon fill="black" stroke="black" points="345,-76 355,-72.5 345,-69 345,-76"/>
</g>
<!-- node_4 -->
<g id="node6" class="node">
<title>node_4</title>
<g id="a_node6"><a xlink:title="SignalMapper::new(|(lhs, rhs):&amp;(_,_)| *lhs &amp;&amp; *rhs)">
<polygon fill="none" stroke="black" points="570,-54.5 570,-90.5 749,-90.5 749,-54.5 570,-54.5"/>
<text text-anchor="middle" x="588" y="-68.8" font-family="Times,serif" font-size="14.00">[0]</text>
<polyline fill="none" stroke="black" points="606,-54.5 606,-90.5 "/>
<text text-anchor="middle" x="677.5" y="-68.8" font-family="Times,serif" font-size="14.00">#4:SignalMapper</text>
</a>
</g>
</g>
<!-- node_2&#45;&gt;node_4 -->
<g id="edge6" class="edge">
<title>node_2:output&#45;&gt;node_4:input0</title>
<path fill="none" stroke="black" d="M534,-72.5C546,-72.5 551.25,-72.5 559.88,-72.5"/>
<polygon fill="black" stroke="black" points="560,-76 570,-72.5 560,-69 560,-76"/>
</g>
<!-- node_3&#45;&gt;node_4 -->
<g id="edge7" class="edge">
<title>node_3:output&#45;&gt;node_4:input0</title>
<path fill="none" stroke="black" d="M534,-127.5C558.88,-127.5 546.31,-87.62 560.07,-75.78"/>
<polygon fill="black" stroke="black" points="561.6,-78.96 570,-72.5 559.41,-72.31 561.6,-78.96"/>
</g>
<!-- node_5 -->
<g id="node7" class="node">
<title>node_5</title>
<g id="a_node7"><a xlink:title="DurationTrue::default()">
<polygon fill="none" stroke="black" points="785,-54.5 785,-90.5 959,-90.5 959,-54.5 785,-54.5"/>
<text text-anchor="middle" x="803" y="-68.8" font-family="Times,serif" font-size="14.00">[0]</text>
<polyline fill="none" stroke="black" points="821,-54.5 821,-90.5 "/>
<text text-anchor="middle" x="890" y="-68.8" font-family="Times,serif" font-size="14.00">#5:DurationTrue</text>
</a>
</g>
</g>
<!-- node_4&#45;&gt;node_5 -->
<g id="edge8" class="edge">
<title>node_4:output&#45;&gt;node_5:input0</title>
<path fill="none" stroke="black" d="M750.5,-72.5C761.2,-72.5 766.13,-72.5 773.59,-72.5"/>
<polygon fill="black" stroke="black" points="774,-76 784,-72.5 774,-69 774,-76"/>
</g>
<!-- output_playtime -->
<g id="node8" class="node">
<title>output_playtime</title>
<polygon fill="gray" stroke="black" points="1074,-90.5 995,-90.5 995,-54.5 1074,-54.5 1074,-90.5"/>
<text text-anchor="middle" x="1034.5" y="-68.8" font-family="Times,serif" font-size="14.00">playtime</text>
</g>
<!-- node_5&#45;&gt;output_playtime -->
<g id="edge9" class="edge">
<title>node_5:output&#45;&gt;output_playtime</title>
<path fill="none" stroke="black" d="M960,-72.5C967.99,-72.5 976.46,-72.5 984.7,-72.5"/>
<polygon fill="black" stroke="black" points="984.97,-76 994.97,-72.5 984.97,-69 984.97,-76"/>
</g>
</g>
</svg>
