<?xml version="1.0" encoding="UTF-8" standalone="no"?>
<!DOCTYPE svg PUBLIC "-//W3C//DTD SVG 1.1//EN"
 "http://www.w3.org/Graphics/SVG/1.1/DTD/svg11.dtd">
<!-- Generated by graphviz version 2.43.0 (0)
 -->
<!-- Title: %3 Pages: 1 -->
<svg width="1778pt" height="999pt"
 viewBox="0.00 0.00 1778.39 998.57" xmlns="http://www.w3.org/2000/svg" xmlns:xlink="http://www.w3.org/1999/xlink">
<g id="graph0" class="graph" transform="scale(1 1) rotate(0) translate(4 994.57)">
<title>%3</title>
<polygon fill="white" stroke="transparent" points="-4,4 -4,-994.57 1774.39,-994.57 1774.39,4 -4,4"/>
<g id="clust2" class="cluster">
<title>sg_0</title>
<g id="a_clust2"><a xlink:title="(input.ev == const.EV_SEEK_START).measure_duration_true(scope_signal = input.session_signal).add_metric(&quot;seekTime&quot;)">
<polygon fill="none" stroke="black" points="317.39,-705.57 317.39,-792.57 815.39,-792.57 815.39,-705.57 317.39,-705.57"/>
<text text-anchor="middle" x="566.39" y="-777.37" font-family="Times,serif" font-size="14.00">metrics&#45;def.py:31</text>
</a>
</g>
</g>
<g id="clust3" class="cluster">
<title>sg_1</title>
<g id="a_clust3"><a xlink:title="input.sessionized_player_state.add_metric(&quot;playerState&quot;)">
<polygon fill="none" stroke="black" points="298.89,-335.57 298.89,-487.57 1001.39,-487.57 1001.39,-335.57 298.89,-335.57"/>
<text text-anchor="middle" x="650.14" y="-472.37" font-family="Times,serif" font-size="14.00">metrics&#45;def.py:11</text>
</a>
</g>
</g>
<g id="clust4" class="cluster">
<title>sg_2</title>
<g id="a_clust4"><a xlink:title=" &#160;&#160;&#160;.build()">
<polygon fill="none" stroke="black" points="318.39,-172.57 318.39,-259.57 791.89,-259.57 791.89,-172.57 318.39,-172.57"/>
<text text-anchor="middle" x="555.14" y="-244.37" font-family="Times,serif" font-size="14.00">metrics&#45;def.py:23</text>
</a>
</g>
</g>
<g id="clust5" class="cluster">
<title>sg_3</title>
<g id="a_clust5"><a xlink:title="input.sessionized_cdn.add_metric(&quot;cdn&quot;)">
<polygon fill="none" stroke="black" points="298.89,-525.57 298.89,-677.57 1001.39,-677.57 1001.39,-525.57 298.89,-525.57"/>
<text text-anchor="middle" x="650.14" y="-662.37" font-family="Times,serif" font-size="14.00">metrics&#45;def.py:12</text>
</a>
</g>
</g>
<g id="clust6" class="cluster">
<title>sg_4</title>
<g id="a_clust6"><a xlink:title=" &#160;&#160;&#160;&#160;&#160;&#160;&#160;return self.session_id.count_changes()">
<polygon fill="none" stroke="black" points="90.39,-250.57 90.39,-337.57 274.39,-337.57 274.39,-250.57 90.39,-250.57"/>
<text text-anchor="middle" x="182.39" y="-322.37" font-family="Times,serif" font-size="14.00">schema.py:15</text>
</a>
</g>
</g>
<g id="clust7" class="cluster">
<title>sg_5</title>
<g id="a_clust7"><a xlink:title="(~has_been_playing &amp; is_buffering).measure_duration_true(scope_signal = input.session_signal).add_metric(&quot;initialBufferingTime&quot;)">
<polygon fill="none" stroke="black" points="835.39,-240.57 835.39,-327.57 1581.39,-327.57 1581.39,-240.57 835.39,-240.57"/>
<text text-anchor="middle" x="1208.39" y="-312.37" font-family="Times,serif" font-size="14.00">metrics&#45;def.py:25</text>
</a>
</g>
</g>
<g id="clust8" class="cluster">
<title>sg_6</title>
<g id="a_clust8"><a xlink:title="is_buffering.measure_duration_true(scope_signal = input.session_signal).add_metric(&quot;bufferingTime&quot;)">
<polygon fill="none" stroke="black" points="1059.39,-125.57 1059.39,-212.57 1310.39,-212.57 1310.39,-125.57 1059.39,-125.57"/>
<text text-anchor="middle" x="1184.89" y="-197.37" font-family="Times,serif" font-size="14.00">metrics&#45;def.py:17</text>
</a>
</g>
</g>
<g id="clust9" class="cluster">
<title>sg_7</title>
<g id="a_clust9"><a xlink:title="is_buffering = (input.sessionized_player_state == const.PS_BUFFERING)">
<polygon fill="none" stroke="black" points="835.39,-135.57 835.39,-212.57 1039.39,-212.57 1039.39,-135.57 835.39,-135.57"/>
<text text-anchor="middle" x="937.39" y="-197.37" font-family="Times,serif" font-size="14.00">metrics&#45;def.py:16</text>
</a>
</g>
</g>
<g id="clust10" class="cluster">
<title>sg_8</title>
<g id="a_clust10"><a xlink:title="(has_been_playing &amp; is_buffering).measure_duration_true(scope_signal = input.session_signal).add_metric(&quot;rebufferingTime&quot;)">
<polygon fill="none" stroke="black" points="1082.89,-30.57 1082.89,-117.57 1581.39,-117.57 1581.39,-30.57 1082.89,-30.57"/>
<text text-anchor="middle" x="1332.14" y="-102.37" font-family="Times,serif" font-size="14.00">metrics&#45;def.py:28</text>
</a>
</g>
</g>
<g id="clust11" class="cluster">
<title>sg_9</title>
<g id="a_clust11"><a xlink:title="input.sessionized_bit_rate.add_metric(&quot;bitrate&quot;)">
<polygon fill="none" stroke="black" points="294.39,-830.57 294.39,-982.57 1005.89,-982.57 1005.89,-830.57 294.39,-830.57"/>
<text text-anchor="middle" x="650.14" y="-967.37" font-family="Times,serif" font-size="14.00">metrics&#45;def.py:13</text>
</a>
</g>
</g>
<!-- input -->
<g id="node1" class="node">
<title>input</title>
<polygon fill="lightgrey" stroke="black" points="130.39,-349.57 130.39,-579.57 234.39,-579.57 234.39,-349.57 130.39,-349.57"/>
<text text-anchor="middle" x="182.39" y="-564.37" font-family="Times,serif" font-size="14.00">session_id</text>
<polyline fill="none" stroke="black" points="130.39,-556.57 234.39,-556.57 "/>
<text text-anchor="middle" x="182.39" y="-541.37" font-family="Times,serif" font-size="14.00">&lt;clk&gt;</text>
<polyline fill="none" stroke="black" points="130.39,-533.57 234.39,-533.57 "/>
<text text-anchor="middle" x="182.39" y="-518.37" font-family="Times,serif" font-size="14.00">player_state</text>
<polyline fill="none" stroke="black" points="130.39,-510.57 234.39,-510.57 "/>
<text text-anchor="middle" x="182.39" y="-495.37" font-family="Times,serif" font-size="14.00">&lt;clk&gt;</text>
<polyline fill="none" stroke="black" points="130.39,-487.57 234.39,-487.57 "/>
<text text-anchor="middle" x="182.39" y="-472.37" font-family="Times,serif" font-size="14.00">bit_rate</text>
<polyline fill="none" stroke="black" points="130.39,-464.57 234.39,-464.57 "/>
<text text-anchor="middle" x="182.39" y="-449.37" font-family="Times,serif" font-size="14.00">&lt;clk&gt;</text>
<polyline fill="none" stroke="black" points="130.39,-441.57 234.39,-441.57 "/>
<text text-anchor="middle" x="182.39" y="-426.37" font-family="Times,serif" font-size="14.00">ev</text>
<polyline fill="none" stroke="black" points="130.39,-418.57 234.39,-418.57 "/>
<text text-anchor="middle" x="182.39" y="-403.37" font-family="Times,serif" font-size="14.00">&lt;clk&gt;</text>
<polyline fill="none" stroke="black" points="130.39,-395.57 234.39,-395.57 "/>
<text text-anchor="middle" x="182.39" y="-380.37" font-family="Times,serif" font-size="14.00">cdn</text>
<polyline fill="none" stroke="black" points="130.39,-372.57 234.39,-372.57 "/>
<text text-anchor="middle" x="182.39" y="-357.37" font-family="Times,serif" font-size="14.00">&lt;clk&gt;</text>
</g>
<!-- node_0 -->
<g id="node2" class="node">
<title>node_0</title>
<g id="a_node2"><a xlink:title="Accumulator::&lt;i32,String, _&gt;::with_event_filter(Default::default(), |_| true)">
<polygon fill="none" stroke="black" points="98.39,-259.57 98.39,-305.57 266.39,-305.57 266.39,-259.57 98.39,-259.57"/>
<text text-anchor="middle" x="116.39" y="-290.37" font-family="Times,serif" font-size="14.00">[0]</text>
<polyline fill="none" stroke="black" points="98.39,-282.57 134.39,-282.57 "/>
<text text-anchor="middle" x="116.39" y="-267.37" font-family="Times,serif" font-size="14.00">[1]</text>
<polyline fill="none" stroke="black" points="134.39,-259.57 134.39,-305.57 "/>
<text text-anchor="middle" x="200.39" y="-278.87" font-family="Times,serif" font-size="14.00">#0:Accumulator</text>
</a>
</g>
</g>
<!-- node_1 -->
<g id="node3" class="node">
<title>node_1</title>
<g id="a_node3"><a xlink:title="EdgeTriggeredLatch::&lt;i32, u64&gt;::default()">
<polygon fill="none" stroke="black" points="306.89,-344.57 306.89,-390.57 531.89,-390.57 531.89,-344.57 306.89,-344.57"/>
<text text-anchor="middle" x="324.89" y="-375.37" font-family="Times,serif" font-size="14.00">[0]</text>
<polyline fill="none" stroke="black" points="306.89,-367.57 342.89,-367.57 "/>
<text text-anchor="middle" x="324.89" y="-352.37" font-family="Times,serif" font-size="14.00">[1]</text>
<polyline fill="none" stroke="black" points="342.89,-344.57 342.89,-390.57 "/>
<text text-anchor="middle" x="437.39" y="-363.87" font-family="Times,serif" font-size="14.00">#1:EdgeTriggeredLatch</text>
</a>
</g>
</g>
<!-- input&#45;&gt;node_1 -->
<g id="edge4" class="edge">
<title>input:session_id_clock&#45;&gt;node_1:input1</title>
<path fill="none" stroke="black" d="M235.39,-545.57C321.7,-545.57 224.09,-370.83 295.3,-356.5"/>
<polygon fill="black" stroke="black" points="295.76,-359.97 305.39,-355.57 295.11,-353 295.76,-359.97"/>
</g>
<!-- node_2 -->
<g id="node4" class="node">
<title>node_2</title>
<g id="a_node4"><a xlink:title="EdgeTriggeredLatch::&lt;u64, u64&gt;::default()">
<polygon fill="none" stroke="black" points="306.89,-409.57 306.89,-455.57 531.89,-455.57 531.89,-409.57 306.89,-409.57"/>
<text text-anchor="middle" x="324.89" y="-440.37" font-family="Times,serif" font-size="14.00">[0]</text>
<polyline fill="none" stroke="black" points="306.89,-432.57 342.89,-432.57 "/>
<text text-anchor="middle" x="324.89" y="-417.37" font-family="Times,serif" font-size="14.00">[1]</text>
<polyline fill="none" stroke="black" points="342.89,-409.57 342.89,-455.57 "/>
<text text-anchor="middle" x="437.39" y="-428.87" font-family="Times,serif" font-size="14.00">#2:EdgeTriggeredLatch</text>
</a>
</g>
</g>
<!-- input&#45;&gt;node_2 -->
<g id="edge5" class="edge">
<title>input:player_state_clock&#45;&gt;node_2:input0</title>
<path fill="none" stroke="black" d="M235.39,-499.57C271.25,-499.57 267.11,-454.39 295.47,-445.92"/>
<polygon fill="black" stroke="black" points="295.96,-449.39 305.39,-444.57 295.01,-442.46 295.96,-449.39"/>
</g>
<!-- input&#45;&gt;node_2 -->
<g id="edge6" class="edge">
<title>input:session_id_clock&#45;&gt;node_2:input1</title>
<path fill="none" stroke="black" d="M235.39,-545.57C295.34,-545.57 248.03,-434.78 295.4,-421.8"/>
<polygon fill="black" stroke="black" points="295.9,-425.27 305.39,-420.57 295.04,-418.32 295.9,-425.27"/>
</g>
<!-- node_3 -->
<g id="node5" class="node">
<title>node_3</title>
<g id="a_node5"><a xlink:title="SignalMapper::new(|(sep, eep, signal):&amp;(u64,u64,String)| if *sep &lt;= *eep { signal.clone() } else { &#10; &#160;&#160;&#160;&#160;&#160;&#160;&#160;&#160;&#160;&#160;&#160;&#160;&#160;&#160;&#160;Default::default()&#10; &#160;&#160;&#160;&#160;&#160;&#160;&#160;&#160;&#160;&#160;&#160;})">
<polygon fill="none" stroke="black" points="600.39,-346.57 600.39,-382.57 779.39,-382.57 779.39,-346.57 600.39,-346.57"/>
<text text-anchor="middle" x="618.39" y="-360.87" font-family="Times,serif" font-size="14.00">[0]</text>
<polyline fill="none" stroke="black" points="636.39,-346.57 636.39,-382.57 "/>
<text text-anchor="middle" x="707.89" y="-360.87" font-family="Times,serif" font-size="14.00">#3:SignalMapper</text>
</a>
</g>
</g>
<!-- input&#45;&gt;node_3 -->
<g id="edge9" class="edge">
<title>input:player_state&#45;&gt;node_3:input0</title>
<path fill="none" stroke="black" d="M235.39,-522.57C322.54,-522.57 224.11,-387.09 294.39,-335.57 381.14,-271.97 431.37,-312.39 536.39,-335.57 562.68,-341.37 567.38,-359.37 588.93,-363.65"/>
<polygon fill="black" stroke="black" points="588.62,-367.13 598.89,-364.57 589.26,-360.16 588.62,-367.13"/>
</g>
<!-- node_5 -->
<g id="node7" class="node">
<title>node_5</title>
<g id="a_node7"><a xlink:title="EdgeTriggeredLatch::&lt;i32, u64&gt;::default()">
<polygon fill="none" stroke="black" points="306.89,-534.57 306.89,-580.57 531.89,-580.57 531.89,-534.57 306.89,-534.57"/>
<text text-anchor="middle" x="324.89" y="-565.37" font-family="Times,serif" font-size="14.00">[0]</text>
<polyline fill="none" stroke="black" points="306.89,-557.57 342.89,-557.57 "/>
<text text-anchor="middle" x="324.89" y="-542.37" font-family="Times,serif" font-size="14.00">[1]</text>
<polyline fill="none" stroke="black" points="342.89,-534.57 342.89,-580.57 "/>
<text text-anchor="middle" x="437.39" y="-553.87" font-family="Times,serif" font-size="14.00">#5:EdgeTriggeredLatch</text>
</a>
</g>
</g>
<!-- input&#45;&gt;node_5 -->
<g id="edge12" class="edge">
<title>input:session_id_clock&#45;&gt;node_5:input1</title>
<path fill="none" stroke="black" d="M235.39,-545.57C262.86,-545.57 272.14,-545.57 295.34,-545.57"/>
<polygon fill="black" stroke="black" points="295.39,-549.07 305.39,-545.57 295.39,-542.07 295.39,-549.07"/>
</g>
<!-- node_6 -->
<g id="node8" class="node">
<title>node_6</title>
<g id="a_node8"><a xlink:title="EdgeTriggeredLatch::&lt;u64, u64&gt;::default()">
<polygon fill="none" stroke="black" points="306.89,-599.57 306.89,-645.57 531.89,-645.57 531.89,-599.57 306.89,-599.57"/>
<text text-anchor="middle" x="324.89" y="-630.37" font-family="Times,serif" font-size="14.00">[0]</text>
<polyline fill="none" stroke="black" points="306.89,-622.57 342.89,-622.57 "/>
<text text-anchor="middle" x="324.89" y="-607.37" font-family="Times,serif" font-size="14.00">[1]</text>
<polyline fill="none" stroke="black" points="342.89,-599.57 342.89,-645.57 "/>
<text text-anchor="middle" x="437.39" y="-618.87" font-family="Times,serif" font-size="14.00">#6:EdgeTriggeredLatch</text>
</a>
</g>
</g>
<!-- input&#45;&gt;node_6 -->
<g id="edge13" class="edge">
<title>input:cdn_clock&#45;&gt;node_6:input0</title>
<path fill="none" stroke="black" d="M235.39,-360.57C357.4,-360.57 190.07,-618.75 295.12,-633.87"/>
<polygon fill="black" stroke="black" points="295.18,-637.39 305.39,-634.57 295.65,-630.4 295.18,-637.39"/>
</g>
<!-- input&#45;&gt;node_6 -->
<g id="edge14" class="edge">
<title>input:session_id_clock&#45;&gt;node_6:input1</title>
<path fill="none" stroke="black" d="M235.39,-545.57C274.04,-545.57 265.16,-599.41 295.26,-609.09"/>
<polygon fill="black" stroke="black" points="294.99,-612.58 305.39,-610.57 296,-605.66 294.99,-612.58"/>
</g>
<!-- node_7 -->
<g id="node9" class="node">
<title>node_7</title>
<g id="a_node9"><a xlink:title="SignalMapper::new(|(sep, eep, signal):&amp;(u64,u64,String)| if *sep &lt;= *eep { signal.clone() } else { &#10; &#160;&#160;&#160;&#160;&#160;&#160;&#160;&#160;&#160;&#160;&#160;&#160;&#160;&#160;&#160;Default::default()&#10; &#160;&#160;&#160;&#160;&#160;&#160;&#160;&#160;&#160;&#160;&#160;})">
<polygon fill="none" stroke="black" points="600.39,-539.57 600.39,-575.57 779.39,-575.57 779.39,-539.57 600.39,-539.57"/>
<text text-anchor="middle" x="618.39" y="-553.87" font-family="Times,serif" font-size="14.00">[0]</text>
<polyline fill="none" stroke="black" points="636.39,-539.57 636.39,-575.57 "/>
<text text-anchor="middle" x="707.89" y="-553.87" font-family="Times,serif" font-size="14.00">#7:SignalMapper</text>
</a>
</g>
</g>
<!-- input&#45;&gt;node_7 -->
<g id="edge17" class="edge">
<title>input:cdn&#45;&gt;node_7:input0</title>
<path fill="none" stroke="black" d="M235.39,-383.57C290.09,-383.57 249.41,-460.45 294.39,-491.57 383.72,-553.36 432.84,-492.81 536.39,-525.57 562.55,-533.84 566.9,-552.29 588.76,-556.64"/>
<polygon fill="black" stroke="black" points="588.62,-560.14 598.89,-557.57 589.26,-553.17 588.62,-560.14"/>
</g>
<!-- node_9 -->
<g id="node11" class="node">
<title>node_9</title>
<g id="a_node11"><a xlink:title="EdgeTriggeredLatch::&lt;i32, u64&gt;::default()">
<polygon fill="none" stroke="black" points="306.89,-839.57 306.89,-885.57 531.89,-885.57 531.89,-839.57 306.89,-839.57"/>
<text text-anchor="middle" x="324.89" y="-870.37" font-family="Times,serif" font-size="14.00">[0]</text>
<polyline fill="none" stroke="black" points="306.89,-862.57 342.89,-862.57 "/>
<text text-anchor="middle" x="324.89" y="-847.37" font-family="Times,serif" font-size="14.00">[1]</text>
<polyline fill="none" stroke="black" points="342.89,-839.57 342.89,-885.57 "/>
<text text-anchor="middle" x="437.39" y="-858.87" font-family="Times,serif" font-size="14.00">#9:EdgeTriggeredLatch</text>
</a>
</g>
</g>
<!-- input&#45;&gt;node_9 -->
<g id="edge20" class="edge">
<title>input:session_id_clock&#45;&gt;node_9:input1</title>
<path fill="none" stroke="black" d="M235.39,-545.57C362.14,-545.57 215.56,-725.32 294.39,-824.57 300.26,-831.95 310.92,-829.58 317.83,-830.79"/>
<polygon fill="black" stroke="black" points="315.27,-833.18 324.39,-838.57 320.62,-828.67 315.27,-833.18"/>
</g>
<!-- node_10 -->
<g id="node12" class="node">
<title>node_10</title>
<g id="a_node12"><a xlink:title="EdgeTriggeredLatch::&lt;u64, u64&gt;::default()">
<polygon fill="none" stroke="black" points="302.39,-904.57 302.39,-950.57 536.39,-950.57 536.39,-904.57 302.39,-904.57"/>
<text text-anchor="middle" x="320.39" y="-935.37" font-family="Times,serif" font-size="14.00">[0]</text>
<polyline fill="none" stroke="black" points="302.39,-927.57 338.39,-927.57 "/>
<text text-anchor="middle" x="320.39" y="-912.37" font-family="Times,serif" font-size="14.00">[1]</text>
<polyline fill="none" stroke="black" points="338.39,-904.57 338.39,-950.57 "/>
<text text-anchor="middle" x="437.39" y="-923.87" font-family="Times,serif" font-size="14.00">#10:EdgeTriggeredLatch</text>
</a>
</g>
</g>
<!-- input&#45;&gt;node_10 -->
<g id="edge21" class="edge">
<title>input:bit_rate_clock&#45;&gt;node_10:input0</title>
<path fill="none" stroke="black" d="M235.39,-452.57C340.98,-452.57 202.02,-907.76 291.36,-937.99"/>
<polygon fill="black" stroke="black" points="290.97,-941.47 301.39,-939.57 292.06,-934.56 290.97,-941.47"/>
</g>
<!-- input&#45;&gt;node_10 -->
<g id="edge22" class="edge">
<title>input:session_id_clock&#45;&gt;node_10:input1</title>
<path fill="none" stroke="black" d="M235.39,-545.57C314.27,-545.57 242.41,-836.25 294.39,-895.57 298.75,-900.54 306.12,-898.85 311.9,-898.27"/>
<polygon fill="black" stroke="black" points="310.06,-901.25 320.39,-903.57 313.76,-895.31 310.06,-901.25"/>
</g>
<!-- node_11 -->
<g id="node13" class="node">
<title>node_11</title>
<g id="a_node13"><a xlink:title="SignalMapper::new(|(sep, eep, signal):&amp;(u64,u64,i32)| if *sep &lt;= *eep { signal.clone() } else { &#10; &#160;&#160;&#160;&#160;&#160;&#160;&#160;&#160;&#160;&#160;&#160;&#160;&#160;&#160;&#160;&#45;1&#10; &#160;&#160;&#160;&#160;&#160;&#160;&#160;&#160;&#160;&#160;&#160;})">
<polygon fill="none" stroke="black" points="595.89,-844.57 595.89,-880.57 783.89,-880.57 783.89,-844.57 595.89,-844.57"/>
<text text-anchor="middle" x="613.89" y="-858.87" font-family="Times,serif" font-size="14.00">[0]</text>
<polyline fill="none" stroke="black" points="631.89,-844.57 631.89,-880.57 "/>
<text text-anchor="middle" x="707.89" y="-858.87" font-family="Times,serif" font-size="14.00">#11:SignalMapper</text>
</a>
</g>
</g>
<!-- input&#45;&gt;node_11 -->
<g id="edge25" class="edge">
<title>input:bit_rate&#45;&gt;node_11:input0</title>
<path fill="none" stroke="black" d="M235.39,-476.57C380.01,-476.57 189.97,-696.51 294.39,-796.57 333.61,-834.14 484.85,-813.48 536.39,-830.57 560.9,-838.69 564.61,-856.94 584.75,-861.51"/>
<polygon fill="black" stroke="black" points="584.59,-865.01 594.89,-862.57 585.31,-858.05 584.59,-865.01"/>
</g>
<!-- node_15 -->
<g id="node17" class="node">
<title>node_15</title>
<g id="a_node17"><a xlink:title="StateMachine::new((Default::default(), Default::default(), Default::default()), {&#10; &#160;&#160;&#160;&#160;&#160;&#160;&#160;&#160;&#160;&#160;&#160;&#160;&#160;&#160;&#160;let inner_fn = |&amp;res: &amp;bool, state: &amp;String| res || state == &quot;playing&quot;;&#10; &#160;&#160;&#160;&#160;&#160;&#160;&#160;&#160;&#160;&#160;&#160;&#160;&#160;&#160;&#160;move |&amp;(last_scope, last_clock, mut last_state), &amp;(this_scope, this_clock, ref this_input)|{&#10; &#160;&#160;&#160;&#160;&#160;&#160;&#160;&#160;&#160;&#160;&#160;&#160;&#160;&#160;&#160;&#160;&#160;&#160;&#160;if last_scope != this_scope {&#10; &#160;&#160;&#160;&#160;&#160;&#160;&#160;&#160;&#160;&#160;&#160;&#160;&#160;&#160;&#160;&#160;&#160;&#160;&#160;&#160;&#160;&#160;&#160;last_state = Default::default();&#10; &#160;&#160;&#160;&#160;&#160;&#160;&#160;&#160;&#160;&#160;&#160;&#160;&#160;&#160;&#160;&#160;&#160;&#160;&#160;}&#10; &#160;&#160;&#160;&#160;&#160;&#160;&#160;&#160;&#160;&#160;&#160;&#160;&#160;&#160;&#160;&#160;&#160;&#160;&#160;if last_clock == this_clock {&#10; &#160;&#160;&#160;&#160;&#160;&#160;&#160;&#160;&#160;&#160;&#160;&#160;&#160;&#160;&#160;&#160;&#160;&#160;&#160;&#160;&#160;&#160;&#160;(this_scope, this_clock, last_state)&#10; &#160;&#160;&#160;&#160;&#160;&#160;&#160;&#160;&#160;&#160;&#160;&#160;&#160;&#160;&#160;&#160;&#160;&#160;&#160;}&#10; &#160;&#160;&#160;&#160;&#160;&#160;&#160;&#160;&#160;&#160;&#160;&#160;&#160;&#160;&#160;&#160;&#160;&#160;&#160;else {&#10; &#160;&#160;&#160;&#160;&#160;&#160;&#160;&#160;&#160;&#160;&#160;&#160;&#160;&#160;&#160;&#160;&#160;&#160;&#160;&#160;&#160;&#160;&#160;(this_scope, this_clock, (inner_fn)(&amp;last_state, this_input))&#10; &#160;&#160;&#160;&#160;&#160;&#160;&#160;&#160;&#160;&#160;&#160;&#160;&#160;&#160;&#160;&#160;&#160;&#160;&#160;}&#10; &#160;&#160;&#160;&#160;&#160;&#160;&#160;&#160;&#160;&#160;&#160;&#160;&#160;&#160;&#160;}&#10; &#160;&#160;&#160;&#160;&#160;&#160;&#160;&#160;&#160;&#160;&#160;})">
<polygon fill="none" stroke="black" points="326.39,-181.57 326.39,-227.57 512.39,-227.57 512.39,-181.57 326.39,-181.57"/>
<text text-anchor="middle" x="344.39" y="-212.37" font-family="Times,serif" font-size="14.00">[0]</text>
<polyline fill="none" stroke="black" points="326.39,-204.57 362.39,-204.57 "/>
<text text-anchor="middle" x="344.39" y="-189.37" font-family="Times,serif" font-size="14.00">[1]</text>
<polyline fill="none" stroke="black" points="362.39,-181.57 362.39,-227.57 "/>
<text text-anchor="middle" x="437.39" y="-200.87" font-family="Times,serif" font-size="14.00">#15:StateMachine</text>
</a>
</g>
</g>
<!-- input&#45;&gt;node_15 -->
<g id="edge31" class="edge">
<title>input:session_id_clock&#45;&gt;node_15:input0</title>
<path fill="none" stroke="black" d="M235.39,-545.57C346.96,-545.57 249.01,-403.49 294.39,-301.57 308.89,-269.01 338.18,-267.8 343.54,-238.59"/>
<polygon fill="black" stroke="black" points="347.03,-238.83 344.39,-228.57 340.06,-238.23 347.03,-238.83"/>
</g>
<!-- input&#45;&gt;node_15 -->
<g id="edge33" class="edge">
<title>input:session_id_clock&#45;&gt;node_15:input1</title>
<path fill="none" stroke="black" d="M235.39,-545.57C312.71,-545.57 250.59,-223.57 315.38,-194.64"/>
<polygon fill="black" stroke="black" points="316.31,-198.02 325.39,-192.57 314.89,-191.17 316.31,-198.02"/>
</g>
<!-- input&#45;&gt;node_15 -->
<g id="edge34" class="edge">
<title>input:player_state&#45;&gt;node_15:input1</title>
<path fill="none" stroke="black" d="M235.39,-522.57C307.84,-522.57 254.89,-222.78 315.59,-194.67"/>
<polygon fill="black" stroke="black" points="316.35,-198.09 325.39,-192.57 314.88,-191.24 316.35,-198.09"/>
</g>
<!-- node_22 -->
<g id="node24" class="node">
<title>node_22</title>
<g id="a_node24"><a xlink:title="SignalMapper::new(|lhs:&amp;String| *lhs == &quot;seek start&quot;.to_string())">
<polygon fill="none" stroke="black" points="325.39,-724.57 325.39,-760.57 513.39,-760.57 513.39,-724.57 325.39,-724.57"/>
<text text-anchor="middle" x="343.39" y="-738.87" font-family="Times,serif" font-size="14.00">[0]</text>
<polyline fill="none" stroke="black" points="361.39,-724.57 361.39,-760.57 "/>
<text text-anchor="middle" x="437.39" y="-738.87" font-family="Times,serif" font-size="14.00">#22:SignalMapper</text>
</a>
</g>
</g>
<!-- input&#45;&gt;node_22 -->
<g id="edge45" class="edge">
<title>input:ev&#45;&gt;node_22:input0</title>
<path fill="none" stroke="black" d="M235.39,-429.57C362.57,-429.57 207.7,-616.52 294.39,-709.57 306.34,-722.38 329.12,-710.2 338.83,-714.5"/>
<polygon fill="black" stroke="black" points="335.77,-716.21 343.39,-723.57 342.02,-713.06 335.77,-716.21"/>
</g>
<!-- node_0&#45;&gt;node_1 -->
<g id="edge3" class="edge">
<title>node_0:output&#45;&gt;node_1:input0</title>
<path fill="none" stroke="black" d="M267.39,-282.57C309.72,-282.57 267.73,-363.61 295.56,-377.54"/>
<polygon fill="black" stroke="black" points="294.89,-380.97 305.39,-379.57 296.31,-374.12 294.89,-380.97"/>
</g>
<!-- node_0&#45;&gt;node_5 -->
<g id="edge11" class="edge">
<title>node_0:output&#45;&gt;node_5:input0</title>
<path fill="none" stroke="black" d="M267.39,-282.57C327.96,-282.57 251.15,-536.92 295.62,-566.72"/>
<polygon fill="black" stroke="black" points="294.81,-570.14 305.39,-569.57 296.77,-563.41 294.81,-570.14"/>
</g>
<!-- node_0&#45;&gt;node_9 -->
<g id="edge19" class="edge">
<title>node_0:output&#45;&gt;node_9:input0</title>
<path fill="none" stroke="black" d="M200.39,-306.57C200.39,-342.76 254.2,-310.53 274.39,-340.57 305.68,-387.09 252.63,-821.06 296.42,-870.07"/>
<polygon fill="black" stroke="black" points="294.89,-873.21 305.39,-874.57 298.02,-866.96 294.89,-873.21"/>
</g>
<!-- node_14 -->
<g id="node16" class="node">
<title>node_14</title>
<g id="a_node16"><a xlink:title="ScopedDurationTrue::default()">
<polygon fill="none" stroke="black" points="1067.39,-134.57 1067.39,-180.57 1302.39,-180.57 1302.39,-134.57 1067.39,-134.57"/>
<text text-anchor="middle" x="1085.39" y="-165.37" font-family="Times,serif" font-size="14.00">[0]</text>
<polyline fill="none" stroke="black" points="1067.39,-157.57 1103.39,-157.57 "/>
<text text-anchor="middle" x="1085.39" y="-142.37" font-family="Times,serif" font-size="14.00">[1]</text>
<polyline fill="none" stroke="black" points="1103.39,-134.57 1103.39,-180.57 "/>
<text text-anchor="middle" x="1202.89" y="-153.87" font-family="Times,serif" font-size="14.00">#14:ScopedDurationTrue</text>
</a>
</g>
</g>
<!-- node_0&#45;&gt;node_14 -->
<g id="edge28" class="edge">
<title>node_0:output&#45;&gt;node_14:input0</title>
<path fill="none" stroke="black" d="M267.39,-282.57C319.46,-282.57 254.68,-202.24 294.39,-168.57 420.83,-61.37 892.44,-54.89 1039.39,-131.57 1053.66,-139.01 1049.24,-158.01 1056.45,-165.97"/>
<polygon fill="black" stroke="black" points="1055.3,-169.28 1065.89,-169.57 1057.79,-162.74 1055.3,-169.28"/>
</g>
<!-- node_0&#45;&gt;node_15 -->
<g id="edge30" class="edge">
<title>node_0:output&#45;&gt;node_15:input0</title>
<path fill="none" stroke="black" d="M267.39,-282.57C302.63,-282.57 289.71,-228.83 315.54,-218.33"/>
<polygon fill="black" stroke="black" points="316.17,-221.77 325.39,-216.57 314.93,-214.88 316.17,-221.77"/>
</g>
<!-- node_0&#45;&gt;node_15 -->
<g id="edge32" class="edge">
<title>node_0:output&#45;&gt;node_15:input1</title>
<path fill="none" stroke="black" d="M267.39,-282.57C311.08,-282.57 283.34,-206.73 315.3,-194.28"/>
<polygon fill="black" stroke="black" points="316.12,-197.69 325.39,-192.57 314.95,-190.79 316.12,-197.69"/>
</g>
<!-- node_19 -->
<g id="node21" class="node">
<title>node_19</title>
<g id="a_node21"><a xlink:title="ScopedDurationTrue::default()">
<polygon fill="none" stroke="black" points="1338.39,-249.57 1338.39,-295.57 1573.39,-295.57 1573.39,-249.57 1338.39,-249.57"/>
<text text-anchor="middle" x="1356.39" y="-280.37" font-family="Times,serif" font-size="14.00">[0]</text>
<polyline fill="none" stroke="black" points="1338.39,-272.57 1374.39,-272.57 "/>
<text text-anchor="middle" x="1356.39" y="-257.37" font-family="Times,serif" font-size="14.00">[1]</text>
<polyline fill="none" stroke="black" points="1374.39,-249.57 1374.39,-295.57 "/>
<text text-anchor="middle" x="1473.89" y="-268.87" font-family="Times,serif" font-size="14.00">#19:ScopedDurationTrue</text>
</a>
</g>
</g>
<!-- node_0&#45;&gt;node_19 -->
<g id="edge39" class="edge">
<title>node_0:output&#45;&gt;node_19:input0</title>
<path fill="none" stroke="black" d="M267.39,-282.57C389.25,-282.57 699.19,-300.22 815.39,-263.57 825.51,-260.38 825.23,-253.58 835.39,-250.57 936.6,-220.56 1214.94,-205.52 1310.39,-250.57 1323.95,-256.96 1321.69,-273.49 1328.67,-280.89"/>
<polygon fill="black" stroke="black" points="1327.8,-284.31 1338.39,-284.57 1330.28,-277.76 1327.8,-284.31"/>
</g>
<!-- node_21 -->
<g id="node23" class="node">
<title>node_21</title>
<g id="a_node23"><a xlink:title="ScopedDurationTrue::default()">
<polygon fill="none" stroke="black" points="1338.39,-39.57 1338.39,-85.57 1573.39,-85.57 1573.39,-39.57 1338.39,-39.57"/>
<text text-anchor="middle" x="1356.39" y="-70.37" font-family="Times,serif" font-size="14.00">[0]</text>
<polyline fill="none" stroke="black" points="1338.39,-62.57 1374.39,-62.57 "/>
<text text-anchor="middle" x="1356.39" y="-47.37" font-family="Times,serif" font-size="14.00">[1]</text>
<polyline fill="none" stroke="black" points="1374.39,-39.57 1374.39,-85.57 "/>
<text text-anchor="middle" x="1473.89" y="-58.87" font-family="Times,serif" font-size="14.00">#21:ScopedDurationTrue</text>
</a>
</g>
</g>
<!-- node_0&#45;&gt;node_21 -->
<g id="edge43" class="edge">
<title>node_0:output&#45;&gt;node_21:input0</title>
<path fill="none" stroke="black" d="M267.39,-282.57C310.92,-282.57 264.12,-119.84 294.39,-88.57 418.15,39.26 510.98,-20.57 688.89,-20.57 688.89,-20.57 688.89,-20.57 938.39,-20.57 1103.94,-20.57 1163.06,35.93 1310.39,-39.57 1323.97,-46.52 1321.49,-63.34 1328.53,-70.84"/>
<polygon fill="black" stroke="black" points="1327.8,-74.31 1338.39,-74.57 1330.27,-67.76 1327.8,-74.31"/>
</g>
<!-- node_23 -->
<g id="node25" class="node">
<title>node_23</title>
<g id="a_node25"><a xlink:title="ScopedDurationTrue::default()">
<polygon fill="none" stroke="black" points="572.39,-714.57 572.39,-760.57 807.39,-760.57 807.39,-714.57 572.39,-714.57"/>
<text text-anchor="middle" x="590.39" y="-745.37" font-family="Times,serif" font-size="14.00">[0]</text>
<polyline fill="none" stroke="black" points="572.39,-737.57 608.39,-737.57 "/>
<text text-anchor="middle" x="590.39" y="-722.37" font-family="Times,serif" font-size="14.00">[1]</text>
<polyline fill="none" stroke="black" points="608.39,-714.57 608.39,-760.57 "/>
<text text-anchor="middle" x="707.89" y="-733.87" font-family="Times,serif" font-size="14.00">#23:ScopedDurationTrue</text>
</a>
</g>
</g>
<!-- node_0&#45;&gt;node_23 -->
<g id="edge46" class="edge">
<title>node_0:output&#45;&gt;node_23:input0</title>
<path fill="none" stroke="black" d="M267.39,-282.57C311.83,-282.57 264.27,-648.9 294.39,-681.57 368.02,-761.41 438.51,-668.5 536.39,-715.57 552.51,-723.31 551.67,-740.92 562.6,-747.24"/>
<polygon fill="black" stroke="black" points="561.86,-750.67 572.39,-749.57 563.47,-743.85 561.86,-750.67"/>
</g>
<!-- node_1&#45;&gt;node_3 -->
<g id="edge7" class="edge">
<title>node_1:output&#45;&gt;node_3:input0</title>
<path fill="none" stroke="black" d="M533.39,-367.57C558.78,-367.57 567.53,-365.29 588.62,-364.7"/>
<polygon fill="black" stroke="black" points="588.94,-368.2 598.89,-364.57 588.85,-361.2 588.94,-368.2"/>
</g>
<!-- node_2&#45;&gt;node_3 -->
<g id="edge8" class="edge">
<title>node_2:output&#45;&gt;node_3:input0</title>
<path fill="none" stroke="black" d="M533.39,-432.57C571.59,-432.57 559.76,-376.24 588.96,-366.11"/>
<polygon fill="black" stroke="black" points="589.55,-369.56 598.89,-364.57 588.47,-362.65 589.55,-369.56"/>
</g>
<!-- node_4 -->
<g id="node6" class="node">
<title>node_4</title>
<g id="a_node6"><a xlink:title="Peek::default()">
<polygon fill="none" stroke="black" points="881.39,-346.57 881.39,-382.57 993.39,-382.57 993.39,-346.57 881.39,-346.57"/>
<text text-anchor="middle" x="899.39" y="-360.87" font-family="Times,serif" font-size="14.00">[0]</text>
<polyline fill="none" stroke="black" points="917.39,-346.57 917.39,-382.57 "/>
<text text-anchor="middle" x="955.39" y="-360.87" font-family="Times,serif" font-size="14.00">#4:Peek</text>
</a>
</g>
</g>
<!-- node_3&#45;&gt;node_4 -->
<g id="edge10" class="edge">
<title>node_3:output&#45;&gt;node_4:input0</title>
<path fill="none" stroke="black" d="M780.89,-364.57C821.49,-364.57 834.14,-364.57 870.14,-364.57"/>
<polygon fill="black" stroke="black" points="870.39,-368.07 880.39,-364.57 870.39,-361.07 870.39,-368.07"/>
</g>
<!-- node_13 -->
<g id="node15" class="node">
<title>node_13</title>
<g id="a_node15"><a xlink:title="SignalMapper::new(|lhs:&amp;String| *lhs == &quot;buffering&quot;.to_string())">
<polygon fill="none" stroke="black" points="843.39,-144.57 843.39,-180.57 1031.39,-180.57 1031.39,-144.57 843.39,-144.57"/>
<text text-anchor="middle" x="861.39" y="-158.87" font-family="Times,serif" font-size="14.00">[0]</text>
<polyline fill="none" stroke="black" points="879.39,-144.57 879.39,-180.57 "/>
<text text-anchor="middle" x="955.39" y="-158.87" font-family="Times,serif" font-size="14.00">#13:SignalMapper</text>
</a>
</g>
</g>
<!-- node_3&#45;&gt;node_13 -->
<g id="edge27" class="edge">
<title>node_3:output&#45;&gt;node_13:input0</title>
<path fill="none" stroke="black" d="M780.89,-364.57C842.73,-364.57 810.07,-292.97 835.39,-236.57 844.91,-215.37 857.27,-209.95 860.56,-191.69"/>
<polygon fill="black" stroke="black" points="864.06,-191.82 861.39,-181.57 857.09,-191.24 864.06,-191.82"/>
</g>
<!-- output_playerState -->
<g id="node30" class="node">
<title>output_playerState</title>
<polygon fill="gray" stroke="black" points="1234.89,-382.57 1134.89,-382.57 1134.89,-346.57 1234.89,-346.57 1234.89,-382.57"/>
<text text-anchor="middle" x="1184.89" y="-360.87" font-family="Times,serif" font-size="14.00">playerState</text>
</g>
<!-- node_4&#45;&gt;output_playerState -->
<g id="edge52" class="edge">
<title>node_4:output&#45;&gt;output_playerState</title>
<path fill="none" stroke="black" d="M994.39,-364.57C1038,-364.57 1087.25,-364.57 1124.61,-364.57"/>
<polygon fill="black" stroke="black" points="1124.82,-368.07 1134.82,-364.57 1124.81,-361.07 1124.82,-368.07"/>
</g>
<!-- node_5&#45;&gt;node_7 -->
<g id="edge15" class="edge">
<title>node_5:output&#45;&gt;node_7:input0</title>
<path fill="none" stroke="black" d="M533.39,-557.57C558.75,-557.57 567.54,-557.57 588.63,-557.57"/>
<polygon fill="black" stroke="black" points="588.89,-561.07 598.89,-557.57 588.89,-554.07 588.89,-561.07"/>
</g>
<!-- node_6&#45;&gt;node_7 -->
<g id="edge16" class="edge">
<title>node_6:output&#45;&gt;node_7:input0</title>
<path fill="none" stroke="black" d="M533.39,-622.57C570.56,-622.57 560.47,-569.18 588.78,-559.17"/>
<polygon fill="black" stroke="black" points="589.57,-562.59 598.89,-557.57 588.47,-555.68 589.57,-562.59"/>
</g>
<!-- node_8 -->
<g id="node10" class="node">
<title>node_8</title>
<g id="a_node10"><a xlink:title="Peek::default()">
<polygon fill="none" stroke="black" points="881.39,-539.57 881.39,-575.57 993.39,-575.57 993.39,-539.57 881.39,-539.57"/>
<text text-anchor="middle" x="899.39" y="-553.87" font-family="Times,serif" font-size="14.00">[0]</text>
<polyline fill="none" stroke="black" points="917.39,-539.57 917.39,-575.57 "/>
<text text-anchor="middle" x="955.39" y="-553.87" font-family="Times,serif" font-size="14.00">#8:Peek</text>
</a>
</g>
</g>
<!-- node_7&#45;&gt;node_8 -->
<g id="edge18" class="edge">
<title>node_7:output&#45;&gt;node_8:input0</title>
<path fill="none" stroke="black" d="M780.89,-557.57C821.49,-557.57 834.14,-557.57 870.14,-557.57"/>
<polygon fill="black" stroke="black" points="870.39,-561.07 880.39,-557.57 870.39,-554.07 870.39,-561.07"/>
</g>
<!-- output_cdn -->
<g id="node28" class="node">
<title>output_cdn</title>
<polygon fill="gray" stroke="black" points="1211.89,-575.57 1157.89,-575.57 1157.89,-539.57 1211.89,-539.57 1211.89,-575.57"/>
<text text-anchor="middle" x="1184.89" y="-553.87" font-family="Times,serif" font-size="14.00">cdn</text>
</g>
<!-- node_8&#45;&gt;output_cdn -->
<g id="edge50" class="edge">
<title>node_8:output&#45;&gt;output_cdn</title>
<path fill="none" stroke="black" d="M994.39,-557.57C1047.77,-557.57 1109.61,-557.57 1147.74,-557.57"/>
<polygon fill="black" stroke="black" points="1147.84,-561.07 1157.84,-557.57 1147.84,-554.07 1147.84,-561.07"/>
</g>
<!-- node_9&#45;&gt;node_11 -->
<g id="edge23" class="edge">
<title>node_9:output&#45;&gt;node_11:input0</title>
<path fill="none" stroke="black" d="M533.39,-862.57C556.99,-862.57 565.31,-862.57 584.73,-862.57"/>
<polygon fill="black" stroke="black" points="584.89,-866.07 594.89,-862.57 584.89,-859.07 584.89,-866.07"/>
</g>
<!-- node_10&#45;&gt;node_11 -->
<g id="edge24" class="edge">
<title>node_10:output&#45;&gt;node_11:input0</title>
<path fill="none" stroke="black" d="M536.39,-927.57C571.31,-927.57 559.34,-875.1 584.73,-864.44"/>
<polygon fill="black" stroke="black" points="585.7,-867.82 594.89,-862.57 584.43,-860.94 585.7,-867.82"/>
</g>
<!-- node_12 -->
<g id="node14" class="node">
<title>node_12</title>
<g id="a_node14"><a xlink:title="Peek::default()">
<polygon fill="none" stroke="black" points="876.89,-844.57 876.89,-880.57 997.89,-880.57 997.89,-844.57 876.89,-844.57"/>
<text text-anchor="middle" x="894.89" y="-858.87" font-family="Times,serif" font-size="14.00">[0]</text>
<polyline fill="none" stroke="black" points="912.89,-844.57 912.89,-880.57 "/>
<text text-anchor="middle" x="955.39" y="-858.87" font-family="Times,serif" font-size="14.00">#12:Peek</text>
</a>
</g>
</g>
<!-- node_11&#45;&gt;node_12 -->
<g id="edge26" class="edge">
<title>node_11:output&#45;&gt;node_12:input0</title>
<path fill="none" stroke="black" d="M784.89,-862.57C821.5,-862.57 833.12,-862.57 865.24,-862.57"/>
<polygon fill="black" stroke="black" points="865.39,-866.07 875.39,-862.57 865.39,-859.07 865.39,-866.07"/>
</g>
<!-- output_bitrate -->
<g id="node32" class="node">
<title>output_bitrate</title>
<polygon fill="gray" stroke="black" points="1217.39,-880.57 1152.39,-880.57 1152.39,-844.57 1217.39,-844.57 1217.39,-880.57"/>
<text text-anchor="middle" x="1184.89" y="-858.87" font-family="Times,serif" font-size="14.00">bitrate</text>
</g>
<!-- node_12&#45;&gt;output_bitrate -->
<g id="edge54" class="edge">
<title>node_12:output&#45;&gt;output_bitrate</title>
<path fill="none" stroke="black" d="M999.39,-862.57C1048.44,-862.57 1104.81,-862.57 1142.2,-862.57"/>
<polygon fill="black" stroke="black" points="1142.23,-866.07 1152.23,-862.57 1142.23,-859.07 1142.23,-866.07"/>
</g>
<!-- node_13&#45;&gt;node_14 -->
<g id="edge29" class="edge">
<title>node_13:output&#45;&gt;node_14:input1</title>
<path fill="none" stroke="black" d="M1032.39,-162.57C1045.05,-162.57 1048.17,-152.8 1056.21,-148.07"/>
<polygon fill="black" stroke="black" points="1057.09,-151.46 1065.89,-145.57 1055.34,-144.68 1057.09,-151.46"/>
</g>
<!-- node_18 -->
<g id="node20" class="node">
<title>node_18</title>
<g id="a_node20"><a xlink:title="SignalMapper::new(|(lhs, rhs):&amp;(bool,bool)| *lhs &amp;&amp; *rhs)">
<polygon fill="none" stroke="black" points="1090.89,-259.57 1090.89,-295.57 1278.89,-295.57 1278.89,-259.57 1090.89,-259.57"/>
<text text-anchor="middle" x="1108.89" y="-273.87" font-family="Times,serif" font-size="14.00">[0]</text>
<polyline fill="none" stroke="black" points="1126.89,-259.57 1126.89,-295.57 "/>
<text text-anchor="middle" x="1202.89" y="-273.87" font-family="Times,serif" font-size="14.00">#18:SignalMapper</text>
</a>
</g>
</g>
<!-- node_13&#45;&gt;node_18 -->
<g id="edge38" class="edge">
<title>node_13:output&#45;&gt;node_18:input0</title>
<path fill="none" stroke="black" d="M1032.39,-162.57C1032.76,-162.57 1071.65,-241.43 1085.26,-268.54"/>
<polygon fill="black" stroke="black" points="1082.21,-270.27 1089.89,-277.57 1088.44,-267.07 1082.21,-270.27"/>
</g>
<!-- node_20 -->
<g id="node22" class="node">
<title>node_20</title>
<g id="a_node22"><a xlink:title="SignalMapper::new(|(lhs, rhs):&amp;(_,bool)| *lhs &amp;&amp; *rhs)">
<polygon fill="none" stroke="black" points="1090.89,-49.57 1090.89,-85.57 1278.89,-85.57 1278.89,-49.57 1090.89,-49.57"/>
<text text-anchor="middle" x="1108.89" y="-63.87" font-family="Times,serif" font-size="14.00">[0]</text>
<polyline fill="none" stroke="black" points="1126.89,-49.57 1126.89,-85.57 "/>
<text text-anchor="middle" x="1202.89" y="-63.87" font-family="Times,serif" font-size="14.00">#20:SignalMapper</text>
</a>
</g>
</g>
<!-- node_13&#45;&gt;node_20 -->
<g id="edge42" class="edge">
<title>node_13:output&#45;&gt;node_20:input0</title>
<path fill="none" stroke="black" d="M1032.39,-162.57C1053.79,-162.57 1062.76,-91.12 1080.86,-72.15"/>
<polygon fill="black" stroke="black" points="1082.56,-75.21 1089.89,-67.57 1079.39,-68.97 1082.56,-75.21"/>
</g>
<!-- output_bufferingTime -->
<g id="node31" class="node">
<title>output_bufferingTime</title>
<polygon fill="gray" stroke="black" points="1514.89,-175.57 1396.89,-175.57 1396.89,-139.57 1514.89,-139.57 1514.89,-175.57"/>
<text text-anchor="middle" x="1455.89" y="-153.87" font-family="Times,serif" font-size="14.00">bufferingTime</text>
</g>
<!-- node_14&#45;&gt;output_bufferingTime -->
<g id="edge53" class="edge">
<title>node_14:output&#45;&gt;output_bufferingTime</title>
<path fill="none" stroke="black" d="M1303.89,-157.57C1330.97,-157.57 1360.78,-157.57 1386.71,-157.57"/>
<polygon fill="black" stroke="black" points="1386.81,-161.07 1396.81,-157.57 1386.81,-154.07 1386.81,-161.07"/>
</g>
<!-- node_16 -->
<g id="node18" class="node">
<title>node_16</title>
<g id="a_node18"><a xlink:title="SignalMapper::new(|&amp;(_, _, s):&amp;_| s)">
<polygon fill="none" stroke="black" points="595.89,-186.57 595.89,-222.57 783.89,-222.57 783.89,-186.57 595.89,-186.57"/>
<text text-anchor="middle" x="613.89" y="-200.87" font-family="Times,serif" font-size="14.00">[0]</text>
<polyline fill="none" stroke="black" points="631.89,-186.57 631.89,-222.57 "/>
<text text-anchor="middle" x="707.89" y="-200.87" font-family="Times,serif" font-size="14.00">#16:SignalMapper</text>
</a>
</g>
</g>
<!-- node_15&#45;&gt;node_16 -->
<g id="edge35" class="edge">
<title>node_15:output&#45;&gt;node_16:input0</title>
<path fill="none" stroke="black" d="M513.39,-204.57C545.94,-204.57 556.55,-204.57 584.64,-204.57"/>
<polygon fill="black" stroke="black" points="584.89,-208.07 594.89,-204.57 584.89,-201.07 584.89,-208.07"/>
</g>
<!-- node_17 -->
<g id="node19" class="node">
<title>node_17</title>
<g id="a_node19"><a xlink:title="SignalMapper::new(|lhs:&amp;_| *lhs ^ true)">
<polygon fill="none" stroke="black" points="843.39,-259.57 843.39,-295.57 1031.39,-295.57 1031.39,-259.57 843.39,-259.57"/>
<text text-anchor="middle" x="861.39" y="-273.87" font-family="Times,serif" font-size="14.00">[0]</text>
<polyline fill="none" stroke="black" points="879.39,-259.57 879.39,-295.57 "/>
<text text-anchor="middle" x="955.39" y="-273.87" font-family="Times,serif" font-size="14.00">#17:SignalMapper</text>
</a>
</g>
</g>
<!-- node_16&#45;&gt;node_17 -->
<g id="edge36" class="edge">
<title>node_16:output&#45;&gt;node_17:input0</title>
<path fill="none" stroke="black" d="M784.89,-204.57C822.32,-204.57 805.22,-264.52 832.42,-275.76"/>
<polygon fill="black" stroke="black" points="831.93,-279.23 842.39,-277.57 833.18,-272.34 831.93,-279.23"/>
</g>
<!-- node_16&#45;&gt;node_20 -->
<g id="edge41" class="edge">
<title>node_16:output&#45;&gt;node_20:input0</title>
<path fill="none" stroke="black" d="M784.89,-204.57C824.35,-204.57 802.97,-154.04 835.39,-131.57 928.45,-67.08 970.75,-67.48 1079.83,-67.56"/>
<polygon fill="black" stroke="black" points="1079.89,-71.06 1089.89,-67.57 1079.9,-64.06 1079.89,-71.06"/>
</g>
<!-- node_17&#45;&gt;node_18 -->
<g id="edge37" class="edge">
<title>node_17:output&#45;&gt;node_18:input0</title>
<path fill="none" stroke="black" d="M1032.39,-277.57C1054.16,-277.57 1062.02,-277.57 1079.66,-277.57"/>
<polygon fill="black" stroke="black" points="1079.89,-281.07 1089.89,-277.57 1079.89,-274.07 1079.89,-281.07"/>
</g>
<!-- node_18&#45;&gt;node_19 -->
<g id="edge40" class="edge">
<title>node_18:output&#45;&gt;node_19:input1</title>
<path fill="none" stroke="black" d="M1279.89,-277.57C1303.16,-277.57 1309.65,-265.01 1328.19,-261.48"/>
<polygon fill="black" stroke="black" points="1328.75,-264.94 1338.39,-260.57 1328.12,-257.97 1328.75,-264.94"/>
</g>
<!-- output_initialBufferingTime -->
<g id="node26" class="node">
<title>output_initialBufferingTime</title>
<polygon fill="gray" stroke="black" points="1770.39,-290.57 1609.39,-290.57 1609.39,-254.57 1770.39,-254.57 1770.39,-290.57"/>
<text text-anchor="middle" x="1689.89" y="-268.87" font-family="Times,serif" font-size="14.00">initialBufferingTime</text>
</g>
<!-- node_19&#45;&gt;output_initialBufferingTime -->
<g id="edge48" class="edge">
<title>node_19:output&#45;&gt;output_initialBufferingTime</title>
<path fill="none" stroke="black" d="M1574.89,-272.57C1582.77,-272.57 1590.96,-272.57 1599.17,-272.57"/>
<polygon fill="black" stroke="black" points="1599.17,-276.07 1609.17,-272.57 1599.17,-269.07 1599.17,-276.07"/>
</g>
<!-- node_20&#45;&gt;node_21 -->
<g id="edge44" class="edge">
<title>node_20:output&#45;&gt;node_21:input1</title>
<path fill="none" stroke="black" d="M1279.89,-67.57C1303.16,-67.57 1309.65,-55.01 1328.19,-51.48"/>
<polygon fill="black" stroke="black" points="1328.75,-54.94 1338.39,-50.57 1328.12,-47.97 1328.75,-54.94"/>
</g>
<!-- output_rebufferingTime -->
<g id="node29" class="node">
<title>output_rebufferingTime</title>
<polygon fill="gray" stroke="black" points="1756.39,-80.57 1623.39,-80.57 1623.39,-44.57 1756.39,-44.57 1756.39,-80.57"/>
<text text-anchor="middle" x="1689.89" y="-58.87" font-family="Times,serif" font-size="14.00">rebufferingTime</text>
</g>
<!-- node_21&#45;&gt;output_rebufferingTime -->
<g id="edge51" class="edge">
<title>node_21:output&#45;&gt;output_rebufferingTime</title>
<path fill="none" stroke="black" d="M1574.89,-62.57C1587.23,-62.57 1600.32,-62.57 1613.06,-62.57"/>
<polygon fill="black" stroke="black" points="1613.19,-66.07 1623.19,-62.57 1613.19,-59.07 1613.19,-66.07"/>
</g>
<!-- node_22&#45;&gt;node_23 -->
<g id="edge47" class="edge">
<title>node_22:output&#45;&gt;node_23:input1</title>
<path fill="none" stroke="black" d="M514.39,-742.57C537.48,-742.57 543.88,-730.01 562.28,-726.48"/>
<polygon fill="black" stroke="black" points="562.75,-729.95 572.39,-725.57 562.12,-722.98 562.75,-729.95"/>
</g>
<!-- output_seekTime -->
<g id="node27" class="node">
<title>output_seekTime</title>
<polygon fill="gray" stroke="black" points="979.39,-755.57 895.39,-755.57 895.39,-719.57 979.39,-719.57 979.39,-755.57"/>
<text text-anchor="middle" x="937.39" y="-733.87" font-family="Times,serif" font-size="14.00">seekTime</text>
</g>
<!-- node_23&#45;&gt;output_seekTime -->
<g id="edge49" class="edge">
<title>node_23:output&#45;&gt;output_seekTime</title>
<path fill="none" stroke="black" d="M808.89,-737.57C834.06,-737.57 862.01,-737.57 885.32,-737.57"/>
<polygon fill="black" stroke="black" points="885.34,-741.07 895.34,-737.57 885.34,-734.07 885.34,-741.07"/>
</g>
<!-- 1i32 -->
<g id="node33" class="node">
<title>1i32</title>
<ellipse fill="none" stroke="black" cx="31.2" cy="-270.57" rx="31.4" ry="18"/>
<text text-anchor="middle" x="31.2" y="-266.87" font-family="Times,serif" font-size="14.00">1i32</text>
</g>
<!-- 1i32&#45;&gt;node_0 -->
<g id="edge2" class="edge">
<title>1i32&#45;&gt;node_0:input1</title>
<path fill="none" stroke="black" d="M62.71,-270.57C70.49,-270.57 79.02,-270.57 87.36,-270.57"/>
<polygon fill="black" stroke="black" points="87.39,-274.07 97.39,-270.57 87.39,-267.07 87.39,-274.07"/>
</g>
</g>
</svg>
